<?xml version="1.0" standalone="no"?>
<!DOCTYPE svg PUBLIC "-//W3C//DTD SVG 20010904//EN"
 "http://www.w3.org/TR/2001/REC-SVG-20010904/DTD/svg10.dtd">
<svg version="1.0" xmlns="http://www.w3.org/2000/svg"
 width="400.000000pt" height="400.000000pt" viewBox="0 0 400.000000 400.000000"
 preserveAspectRatio="xMidYMid meet">
<metadata>
Created by potrace 1.11, written by Peter Selinger 2001-2013
</metadata>
<g transform="translate(0.000000,400.000000) scale(0.100000,-0.100000)"
fill="#000000" stroke="none">
<path d="M434 3420 c4 -415 3 -580 -4 -580 -6 0 -9 -8 -6 -18 3 -9 8 -32 10
-50 3 -25 0 -32 -10 -28 -7 3 -16 0 -20 -6 -4 -7 -3 -8 4 -4 18 11 35 -31 21
-55 -8 -15 -8 -19 0 -15 8 5 8 0 1 -19 -7 -17 -7 -24 0 -20 6 3 10 -1 10 -9 0
-9 -6 -16 -12 -16 -8 0 -9 -3 -3 -8 6 -4 9 -20 8 -37 -2 -16 -4 -48 -6 -71 -1
-23 -9 -49 -16 -58 -20 -24 -110 -68 -126 -62 -8 3 -15 1 -17 -5 -2 -5 -19
-12 -38 -14 -47 -7 -195 -6 -214 1 -13 5 -16 -2 -15 -37 0 -38 2 -41 11 -22
11 22 36 38 46 28 4 -3 -1 -20 -10 -38 -9 -18 -19 -41 -24 -52 -10 -27 -12
-175 -2 -169 7 5 12 -13 11 -43 0 -6 5 -9 11 -7 7 3 23 -5 37 -17 21 -18 32
-20 81 -14 32 3 70 12 85 20 16 8 34 15 42 15 8 0 12 3 8 6 -3 3 10 20 29 36
22 20 31 34 26 42 -5 6 -9 34 -8 62 1 42 -2 50 -14 46 -8 -3 -12 -2 -8 3 4 4
3 14 -3 21 -6 8 -9 21 -5 29 3 9 2 14 -2 12 -4 -3 -13 1 -20 9 -7 8 -10 14 -7
14 4 0 -1 7 -9 16 -9 8 -14 19 -11 24 5 9 65 -10 65 -21 0 -3 11 -23 25 -43
14 -21 27 -47 28 -59 1 -12 13 -34 27 -50 16 -19 25 -42 26 -65 1 -21 3 -55 4
-77 4 -78 3 -80 -46 -93 -50 -14 -89 -48 -91 -82 -1 -12 -4 -24 -6 -27 -11
-10 -138 -22 -214 -20 l-83 2 0 -843 c0 -755 2 -843 16 -838 8 3 35 1 60 -4
25 -6 103 -10 175 -11 71 0 129 -3 129 -7 -1 -17 -18 -30 -55 -43 -22 -8 -53
-22 -70 -31 l-30 -18 37 0 c21 0 58 10 83 22 45 22 47 22 77 5 43 -25 117 -34
129 -16 6 10 9 10 9 2 0 -9 17 -13 50 -13 33 0 50 4 50 13 0 8 3 7 10 -3 7
-12 15 -13 40 -3 19 7 28 7 24 1 -4 -7 5 -7 27 -2 19 4 45 7 59 6 14 -1 57 -4
95 -7 l70 -5 -68 23 c-71 24 -76 41 -13 45 39 3 47 12 10 13 l-29 0 25 10 c19
8 27 7 36 -5 6 -9 13 -14 15 -11 3 2 29 -2 58 -10 96 -25 246 -30 345 -10 74
15 90 15 97 4 13 -20 11 -47 -3 -52 -7 -3 -1 -6 14 -6 25 -1 26 0 17 32 -11
34 -12 41 -26 103 -10 51 -10 313 1 339 9 20 10 26 20 105 8 62 25 100 46 100
9 0 42 9 73 19 l56 20 -10 -27 c-6 -14 -16 -33 -22 -41 -8 -10 -8 -13 -1 -8 7
4 0 -15 -14 -42 -15 -27 -31 -47 -37 -44 -5 3 -5 0 2 -7 9 -10 9 -18 1 -34 -7
-12 -13 -28 -14 -36 -8 -52 -15 -88 -21 -110 -11 -45 -12 -54 -18 -135 -8
-137 -6 -200 8 -223 7 -10 207 -12 965 -12 942 0 956 1 977 20 17 16 22 17 22
6 0 -8 -4 -13 -8 -10 -4 2 -10 0 -14 -6 -10 -16 140 -13 154 3 6 8 8 17 4 20
-3 4 -1 7 6 7 6 0 11 -8 9 -17 -3 -16 10 -18 126 -21 71 -2 142 2 158 7 18 6
26 7 23 1 -4 -6 5 -10 18 -10 25 0 25 1 26 99 1 61 -3 102 -9 106 -6 4 -47 9
-92 12 -66 4 -79 3 -73 -8 6 -11 5 -12 -6 -2 -16 15 -33 17 -24 3 3 -5 1 -10
-4 -10 -6 0 -11 5 -11 11 0 8 -6 7 -17 -2 -9 -8 -14 -9 -10 -3 4 8 -24 12 -91
14 -210 6 -324 5 -329 -3 -3 -4 -10 -4 -17 2 -6 5 -48 8 -94 7 -75 -2 -84 0
-105 22 -32 35 -71 52 -115 52 -38 0 -40 2 -57 47 -10 27 -27 63 -37 81 -11
18 -18 35 -15 38 3 3 8 -4 12 -15 8 -25 15 -26 41 -5 10 8 14 13 7 10 -6 -4
-13 -1 -15 6 -2 6 -19 11 -37 11 -24 0 -37 8 -52 28 -20 29 -16 38 14 34 9 -2
15 0 12 4 -5 10 39 53 47 46 2 -3 5 2 5 10 0 8 -4 12 -8 10 -6 -4 -6 5 1 35 0
3 6 -2 13 -11 7 -8 20 -18 30 -22 10 -4 15 -11 12 -17 -3 -5 -1 -10 4 -10 6 0
11 9 11 21 0 13 4 18 13 13 8 -5 8 -3 -2 9 -11 14 -11 18 3 23 9 3 14 10 11
14 -3 4 2 11 11 14 8 3 12 2 9 -4 -3 -6 -1 -10 4 -10 6 0 11 -7 11 -15 0 -8 5
-15 11 -15 5 0 8 4 4 9 -3 5 0 13 6 17 7 4 9 3 5 -4 -3 -5 0 -13 6 -15 10 -4
10 -6 0 -6 -7 -1 -10 -6 -6 -13 4 -7 3 -8 -4 -4 -7 4 -12 3 -12 -2 0 -5 9 -12
20 -15 11 -3 20 -2 20 3 0 4 9 10 20 13 13 3 18 10 14 21 -3 9 -10 14 -14 11
-5 -3 -12 0 -16 7 -4 7 -4 10 1 6 4 -4 16 -3 25 2 13 7 21 5 30 -5 7 -8 15
-13 19 -11 4 3 7 -4 7 -15 0 -19 -1 -19 -13 -3 -12 16 -13 16 -13 1 0 -22 33
-24 36 -2 1 6 3 17 5 25 4 13 0 15 -33 19 -6 0 -8 4 -5 7 4 4 -3 15 -15 25
-11 11 -17 19 -12 19 6 0 15 -5 22 -12 9 -9 12 -8 16 3 13 41 14 43 15 22 1
-12 -4 -25 -9 -28 -6 -4 -8 -11 -5 -16 9 -13 26 -11 22 2 -1 6 5 14 13 16 9 3
11 1 5 -4 -15 -11 -13 -38 3 -37 6 1 21 2 32 3 11 0 20 8 20 16 0 8 5 15 10
15 6 0 2 9 -8 20 -10 11 -25 18 -33 15 -8 -3 -27 4 -44 15 -16 11 -23 20 -15
20 12 0 12 2 -1 15 -16 16 -54 10 -43 -6 3 -5 0 -9 -5 -9 -6 0 -11 5 -11 12 0
6 -7 20 -17 30 -9 11 -11 18 -5 18 7 0 12 -4 12 -9 0 -15 43 -9 62 7 16 13 18
13 24 -2 3 -9 11 -16 16 -16 7 0 7 5 1 13 -11 14 -11 27 1 46 6 10 5 12 -2 7
-8 -5 -11 0 -8 16 3 13 5 23 6 23 1 0 3 8 5 17 2 10 0 17 -3 17 -21 -3 -32 2
-26 12 3 6 1 15 -6 19 -8 5 -10 17 -6 34 4 15 11 24 16 21 5 -3 14 3 19 14 8
14 8 21 -2 24 -9 4 -9 6 1 6 7 1 10 5 7 11 -4 6 1 7 11 3 12 -4 14 -8 5 -11
-8 -3 -7 -8 6 -19 17 -14 17 -14 -1 -9 -16 6 -17 4 -6 -9 7 -8 9 -15 6 -15 -4
0 -1 -10 6 -23 15 -27 19 -49 8 -42 -4 3 -11 -2 -14 -11 -6 -15 -4 -15 18 0
32 20 40 20 32 0 -4 -10 -1 -14 6 -12 7 3 13 11 13 19 0 9 10 14 25 13 14 -1
27 2 30 6 9 14 55 16 53 3 -2 -7 2 -13 7 -13 14 0 13 13 -2 28 -10 10 -6 18
16 38 31 29 31 29 -39 66 -22 11 -44 27 -48 34 -4 8 -15 14 -22 14 -8 0 -15 7
-15 16 0 10 -6 14 -15 10 -8 -3 -15 -1 -15 5 0 6 -4 8 -9 5 -5 -4 -7 2 -4 12
3 12 -4 21 -19 28 -13 5 -16 8 -8 6 12 -2 13 -1 3 9 -21 21 -83 16 -102 -7
-18 -23 -21 -24 -56 -24 -20 0 -25 -5 -25 -26 0 -19 -4 -25 -15 -20 -15 5 -55
-21 -55 -35 0 -4 8 -10 18 -12 12 -3 9 -5 -8 -6 -27 -2 -60 -22 -60 -37 0 -6
-9 -10 -20 -11 -13 -1 -18 2 -14 9 4 6 3 8 -4 4 -6 -3 -22 -2 -36 4 -19 7 -29
6 -41 -6 -17 -18 -20 -34 -5 -34 5 0 9 -5 7 -12 -1 -7 5 -13 13 -13 8 0 14 -6
13 -13 -2 -7 2 -12 8 -12 6 0 9 -7 5 -15 -3 -8 -1 -15 4 -15 6 0 10 -5 10 -11
0 -8 -4 -8 -13 -1 -25 21 -37 -2 -16 -28 18 -23 19 -23 9 -2 -7 15 -7 22 0 22
5 0 10 -6 10 -12 0 -8 5 -6 11 4 5 9 16 15 24 12 8 -4 13 -10 10 -14 -3 -5 0
-12 6 -16 8 -4 9 -3 5 4 -4 7 -2 12 4 12 7 0 9 -7 6 -16 -9 -23 11 -54 32 -48
14 5 15 4 2 -5 -11 -8 -12 -11 -2 -11 7 0 10 -5 6 -11 -4 -7 -1 -10 7 -7 17 6
12 40 -7 51 -8 5 -11 13 -7 20 4 6 8 25 9 42 2 47 4 51 13 36 6 -9 5 -21 -2
-32 -8 -13 -7 -22 4 -35 8 -10 9 -15 2 -11 -6 4 -14 3 -17 -1 -3 -5 5 -14 19
-20 19 -9 25 -8 28 4 3 9 4 8 3 -3 -1 -10 -8 -17 -14 -16 -14 3 -16 -13 -3
-21 18 -11 6 -49 -16 -52 -13 -2 -23 1 -23 7 0 5 4 8 9 4 5 -3 12 -1 16 5 3 5
-1 10 -9 10 -8 0 -20 9 -26 20 -13 23 -27 26 -27 5 0 -8 4 -12 8 -10 4 3 9 -1
12 -8 3 -8 -4 -13 -20 -13 -18 0 -23 4 -20 18 3 10 1 18 -4 18 -8 0 -10 -6
-13 -42 -1 -8 11 -12 32 -12 17 1 32 -3 32 -7 0 -5 -10 -7 -22 -5 -13 2 -29
-2 -37 -8 -11 -8 -13 -8 -8 0 4 7 0 15 -9 18 -8 3 -12 2 -9 -4 3 -6 -1 -10
-10 -10 -12 0 -14 4 -6 19 6 10 7 21 4 25 -3 3 1 6 11 6 10 0 14 5 11 11 -9
14 -47 -20 -38 -35 3 -6 0 -5 -8 2 -12 11 -12 14 1 22 14 9 7 14 -14 11 -17
-3 -46 11 -40 20 4 6 11 6 19 -1 10 -9 13 -7 11 7 -2 10 2 21 8 25 8 6 8 8 0
8 -6 0 -19 -9 -29 -20 -21 -23 -41 -26 -48 -7 -4 9 -6 9 -6 -1 -1 -8 -6 -10
-13 -6 -10 6 -10 4 0 -8 17 -21 -3 -35 -23 -18 -9 7 -15 8 -15 2 0 -15 31 -24
44 -13 7 6 17 6 26 1 20 -13 33 -12 25 0 -10 16 5 12 23 -7 16 -16 16 -16 0
-10 -10 3 -18 2 -18 -4 0 -6 -8 -6 -21 1 -11 7 -23 9 -27 6 -3 -3 0 -6 6 -6 6
0 14 -9 17 -20 5 -17 10 -18 28 -9 20 9 20 9 5 -4 -10 -8 -15 -17 -12 -20 3
-3 -3 -3 -14 0 -11 2 -19 12 -18 21 1 12 -7 16 -29 17 -19 0 -34 7 -41 19 -11
18 -12 18 -11 -5 0 -17 8 -29 25 -37 28 -13 45 -7 22 8 -11 7 -10 9 7 8 17 -2
20 -6 13 -24 -7 -17 -4 -26 8 -36 15 -12 16 -11 3 5 -8 10 -9 17 -3 17 6 0 17
-10 23 -22 7 -13 16 -26 21 -29 5 -3 -6 -14 -24 -23 -22 -12 -25 -16 -11 -13
13 3 26 1 29 -4 7 -12 24 -11 24 1 0 6 -8 10 -17 11 -12 0 -13 2 -5 6 7 3 19
0 27 -7 11 -9 12 -15 2 -25 -7 -7 -16 -10 -22 -7 -5 3 -4 -2 4 -11 12 -15 11
-17 -8 -17 -15 0 -21 5 -19 18 2 13 -3 16 -19 14 -21 -3 -28 6 -24 30 0 5 -5
7 -12 5 -6 -1 -12 7 -12 18 0 11 -10 26 -23 33 -20 11 -21 16 -10 30 9 11 9
13 1 9 -12 -8 -53 25 -53 41 0 5 -14 29 -32 53 -50 69 -98 170 -98 205 0 38
48 174 61 174 5 0 7 -31 5 -68 -3 -37 -1 -74 4 -82 5 -7 4 -24 -1 -38 -7 -18
-6 -28 2 -32 6 -4 12 -19 12 -34 1 -14 5 -26 9 -26 19 0 45 179 27 190 -4 3
-10 37 -13 75 -2 39 -2 62 0 52 3 -9 10 -15 15 -12 13 8 11 45 -2 45 -5 0 -7
6 -3 13 5 8 2 7 -10 -2 -15 -13 -16 -11 -11 20 3 18 8 35 10 38 3 2 -1 11 -7
19 -10 11 -6 19 22 43 19 16 46 32 60 36 14 3 28 10 31 15 3 5 18 4 35 -2 23
-9 31 -8 39 4 13 17 51 11 73 -11 11 -10 17 -10 37 3 26 17 41 12 63 -18 15
-21 32 -24 32 -5 0 18 -67 87 -85 87 -8 0 -18 6 -22 13 -4 8 -30 26 -56 42
-38 22 -56 26 -85 21 -20 -3 -42 -12 -48 -21 -6 -8 -15 -11 -19 -7 -5 4 -5 2
-2 -4 9 -16 56 -24 51 -9 -3 7 2 15 12 19 12 5 15 2 10 -10 -5 -13 -3 -14 6
-6 10 8 13 4 15 -15 1 -20 -1 -23 -9 -12 -7 10 -8 8 -5 -9 4 -18 3 -21 -7 -13
-7 6 -17 7 -21 3 -5 -4 -5 -2 -2 4 4 7 0 14 -7 17 -10 4 -14 0 -11 -13 2 -10
-3 -24 -10 -30 -12 -10 -14 -6 -10 19 2 18 0 29 -6 25 -5 -3 -7 -10 -4 -15 4
-5 -2 -9 -12 -9 -11 0 -19 -8 -20 -20 -1 -11 -11 -29 -21 -41 l-20 -21 -7 22
c-4 12 -2 27 3 32 8 8 -3 24 -34 53 -30 29 -44 50 -44 68 0 18 -5 27 -16 27
-43 0 8 30 167 100 277 122 363 184 394 289 9 31 18 62 21 69 2 6 16 12 32 12
53 0 265 74 348 121 127 72 224 187 317 373 54 109 54 119 -1 147 -66 34 -102
69 -102 98 0 16 6 33 13 39 7 6 59 27 116 46 57 20 110 41 117 47 26 21 51
133 69 299 3 30 9 200 12 377 l6 322 -332 0 -331 0 -19 -37 c-53 -106 -90
-249 -141 -547 -32 -187 -51 -269 -86 -370 -25 -71 -62 -184 -83 -250 -21 -66
-44 -133 -51 -150 l-12 -30 -11 25 c-20 48 -87 185 -109 225 -12 22 -59 76
-104 120 -69 68 -94 86 -175 122 -221 98 -349 131 -619 158 -71 7 -113 35
-124 81 -4 13 -11 24 -16 24 -16 0 -31 -38 -24 -64 5 -23 5 -23 -63 -19 -54 4
-71 2 -81 -10 -11 -13 -9 -18 15 -31 26 -13 27 -15 8 -21 -65 -22 -82 -45 -48
-63 14 -8 5 -16 -48 -43 -35 -19 -68 -36 -73 -38 -6 -2 -51 -34 -100 -72 -100
-74 -191 -164 -225 -221 -33 -55 -54 -50 -86 20 -55 118 -71 192 -79 357 -3
61 -8 166 -12 235 -7 134 -33 260 -62 299 -10 14 -30 33 -44 44 -23 17 -28 18
-54 4 -16 -8 -45 -37 -64 -64 l-35 -48 -3 182 -2 183 -142 -1 -141 0 7 -579z
m106 566 c0 -2 -8 -10 -17 -17 -16 -13 -17 -12 -4 4 13 16 21 21 21 13z m3320
-10 c0 -2 -7 -7 -16 -10 -8 -3 -12 -2 -9 4 6 10 25 14 25 6z m-3259 -69 c-10
-9 -11 -8 -5 6 3 10 9 15 12 12 3 -3 0 -11 -7 -18z m2956 -12 c0 -8 -4 -12 -9
-9 -5 3 -6 10 -3 15 9 13 12 11 12 -6z m26 -10 c-3 -9 -8 -14 -10 -11 -3 3 -2
9 2 15 9 16 15 13 8 -4z m-3016 -80 c0 -8 -4 -12 -9 -9 -5 3 -6 10 -3 15 9 13
12 11 12 -6z m33 -25 c0 -11 -4 -20 -9 -20 -7 0 -8 17 -2 38 4 10 11 -2 11
-18z m-3 -45 c0 -8 -4 -12 -9 -9 -5 3 -6 10 -3 15 9 13 12 11 12 -6z m2913
-20 c0 -5 -5 -3 -10 5 -5 8 -10 20 -10 25 0 6 5 3 10 -5 5 -8 10 -19 10 -25z
m300 31 c0 -2 -8 -10 -17 -17 -16 -13 -17 -12 -4 4 13 16 21 21 21 13z m41
-29 c-10 -9 -11 -8 -5 6 3 10 9 15 12 12 3 -3 0 -11 -7 -18z m-3171 7 c0 -8
-19 -13 -24 -6 -3 5 1 9 9 9 8 0 15 -2 15 -3z m-73 -21 c-4 -3 -1 -13 6 -22
11 -14 10 -14 -5 -2 -16 12 -16 31 -1 31 4 0 3 -3 0 -7z m3088 -13 c3 -6 -1
-7 -9 -4 -18 7 -21 14 -7 14 6 0 13 -4 16 -10z m280 0 c3 -6 -1 -7 -9 -4 -18
7 -21 14 -7 14 6 0 13 -4 16 -10z m-8 -38 c-9 -2 -14 -8 -11 -14 4 -6 -2 -5
-15 2 -29 15 -18 29 16 22 20 -4 23 -7 10 -10z m-3299 -21 c-7 -9 -13 -17 -14
-19 -1 -2 -1 8 0 21 0 15 6 23 14 20 10 -4 10 -9 0 -22z m-123 1 c-3 -3 -11 0
-18 7 -9 10 -8 11 6 5 10 -3 15 -9 12 -12z m98 -37 c4 -8 1 -17 -5 -21 -7 -4
-8 -3 -4 4 4 7 2 12 -4 12 -6 0 -8 5 -5 10 8 14 12 13 18 -5z m3052 -25 c-3
-5 -12 -10 -18 -10 -7 0 -6 4 3 10 19 12 23 12 15 0z m-3145 -25 c7 -9 8 -15
2 -15 -5 0 -12 7 -16 15 -3 8 -4 15 -2 15 2 0 9 -7 16 -15z m63 -13 c-5 -11
-7 -11 -14 0 -7 10 -9 10 -9 -2 0 -8 9 -21 21 -28 15 -10 18 -16 10 -26 -6 -7
-7 -17 -3 -21 4 -5 1 -5 -6 -1 -10 6 -10 11 -2 21 9 10 7 16 -8 24 -11 6 -23
7 -27 3 -4 -4 -5 2 -3 13 3 23 13 32 32 32 8 0 12 -7 9 -15z m3204 3 c0 -8 -4
-12 -9 -9 -5 3 -6 10 -3 15 9 13 12 11 12 -6z m-3146 -46 c10 -6 8 -8 -7 -7
-12 1 -21 10 -22 22 -1 15 1 17 7 7 5 -7 15 -17 22 -22z m66 15 c-3 -3 -12 -4
-19 -1 -8 3 -5 6 6 6 11 1 17 -2 13 -5z m120 -39 c0 -8 -4 -12 -9 -9 -5 3 -6
10 -3 15 9 13 12 11 12 -6z m2584 2 c-6 -8 -8 -17 -4 -21 4 -4 0 -4 -10 0 -17
6 -17 7 0 20 23 17 28 18 14 1z m-2781 -11 c-7 -7 -13 -7 -20 0 -6 6 -3 10 10
10 13 0 16 -4 10 -10z m94 -23 c-14 -10 -15 -16 -6 -25 7 -7 12 -17 12 -22 0
-6 -7 -1 -15 11 -17 25 -11 50 12 50 13 0 13 -2 -3 -14z m2933 -39 c-3 -3 -12
-4 -19 -1 -8 3 -5 6 6 6 11 1 17 -2 13 -5z m-3067 -8 c0 -2 -8 -10 -17 -17
-16 -13 -17 -12 -4 4 13 16 21 21 21 13z m2830 0 c0 -11 -19 -15 -25 -6 -3 5
1 10 9 10 9 0 16 -2 16 -4z m-2871 -30 c9 -11 9 -16 -1 -22 -7 -4 -10 -4 -6 1
4 4 3 14 -3 22 -6 7 -9 13 -6 13 2 0 10 -6 16 -14z m95 -5 c12 -13 14 -21 6
-26 -6 -4 -9 -1 -8 7 2 7 -5 12 -14 12 -10 -1 -14 4 -11 12 7 18 7 18 27 -5z
m-44 -5 c0 -2 -7 -7 -16 -10 -8 -3 -12 -2 -9 4 6 10 25 14 25 6z m-80 -30 c0
-2 -8 -10 -17 -17 -16 -13 -17 -12 -4 4 13 16 21 21 21 13z m130 -10 c0 -2 -8
-10 -17 -17 -16 -13 -17 -12 -4 4 13 16 21 21 21 13z m-107 -55 c-4 -3 -11
-10 -15 -15 -4 -4 -6 1 -5 12 1 12 6 18 15 15 7 -3 10 -9 5 -12z m3078 2 c13
-16 12 -17 -3 -4 -17 13 -22 21 -14 21 2 0 10 -8 17 -17z m-2985 -5 c5 4 5 3
1 -2 -12 -15 -34 -15 -34 0 0 9 4 11 12 4 7 -5 16 -6 21 -2z m94 -38 c0 -9 -9
-25 -20 -35 -16 -14 -21 -15 -25 -4 -4 12 -3 25 4 83 2 16 41 -26 41 -44z
m2545 40 c-3 -5 -14 -10 -23 -9 -14 0 -13 2 3 9 27 11 27 11 20 0z m-2688 -15
c0 -8 -4 -12 -9 -9 -5 3 -6 10 -3 15 9 13 12 11 12 -6z m2960 -44 c0 -11 -5
-18 -9 -15 -4 3 -5 11 -1 19 7 21 12 19 10 -4z m-2949 -33 c-2 -7 2 -12 9 -13
7 0 18 -6 25 -14 11 -12 10 -12 -2 -5 -8 5 -21 9 -28 10 -19 3 -25 11 -17 23
8 15 16 14 13 -1z m57 -8 c3 -6 -1 -7 -9 -4 -18 7 -21 14 -7 14 6 0 13 -4 16
-10z m-121 -12 c4 4 6 0 4 -8 -2 -9 4 -14 15 -14 10 1 17 -5 17 -17 0 -10 -5
-19 -11 -19 -5 0 -7 5 -4 10 3 6 0 10 -8 10 -8 0 -23 12 -33 28 -13 19 -13 24
-2 15 8 -7 18 -9 22 -5z m2821 2 c3 -6 -1 -7 -9 -4 -18 7 -21 14 -7 14 6 0 13
-4 16 -10z m82 -5 c0 -8 -4 -12 -9 -9 -5 3 -6 10 -3 15 9 13 12 11 12 -6z m43
5 c0 -5 -5 -10 -11 -10 -5 0 -7 5 -4 10 3 6 8 10 11 10 2 0 4 -4 4 -10z m240
-4 c0 -2 -8 -10 -17 -17 -16 -13 -17 -12 -4 4 13 16 21 21 21 13z m-2926 -42
c3 -8 2 -12 -4 -9 -6 3 -10 10 -10 16 0 14 7 11 14 -7z m2923 -6 c-3 -8 -6 -5
-6 6 -1 11 2 17 5 13 3 -3 4 -12 1 -19z m30 7 c0 -8 -4 -12 -9 -9 -5 3 -6 10
-3 15 9 13 12 11 12 -6z m-3089 -18 c1 -15 -4 -24 -13 -24 -8 0 -13 3 -11 6 2
3 6 14 9 24 9 23 12 22 15 -6z m-141 -2 c0 -8 -4 -12 -9 -9 -5 3 -6 10 -3 15
9 13 12 11 12 -6z m2815 -2 c-6 -2 -9 -10 -6 -15 4 -7 2 -8 -5 -4 -13 9 -5 26
12 25 9 0 8 -2 -1 -6z m156 -23 c-7 -10 -14 -17 -17 -15 -4 4 18 35 25 35 2 0
-1 -9 -8 -20z m-2888 -4 c0 -3 -4 -8 -10 -11 -5 -3 -10 -1 -10 4 0 6 5 11 10
11 6 0 10 -2 10 -4z m2590 -26 c-8 -5 -19 -10 -25 -10 -5 0 -3 5 5 10 8 5 20
10 25 10 6 0 3 -5 -5 -10z m-2609 -17 c13 -16 12 -17 -3 -4 -10 7 -18 15 -18
17 0 8 8 3 21 -13z m35 -28 c-8 -7 -12 -16 -8 -20 4 -5 2 -5 -5 -1 -16 9 -6
33 14 33 14 0 14 -1 -1 -12z m148 -11 c3 -8 2 -12 -4 -9 -6 3 -10 10 -10 16 0
14 7 11 14 -7z m2636 12 c0 -2 -7 -7 -16 -10 -8 -3 -12 -2 -9 4 6 10 25 14 25
6z m-2743 -12 c-3 -3 -12 -4 -19 -1 -8 3 -5 6 6 6 11 1 17 -2 13 -5z m1923 -6
c0 -6 3 -9 6 -5 4 3 24 -3 45 -13 40 -21 133 -126 123 -141 -3 -5 -1 -9 3 -9
10 0 33 -58 33 -82 0 -9 7 -21 15 -28 8 -7 13 -16 10 -20 -2 -4 -7 -34 -9 -67
-6 -80 -16 -132 -27 -139 -5 -3 -7 -10 -4 -15 4 -5 2 -9 -3 -9 -4 0 -14 -16
-22 -35 -8 -19 -18 -35 -22 -35 -5 0 -13 -11 -18 -25 -5 -13 -29 -38 -52 -54
-24 -17 -48 -35 -54 -40 -7 -6 -18 -3 -30 7 -17 16 -17 16 -5 0 8 -10 11 -19
7 -19 -14 -3 -24 -7 -81 -34 -55 -26 -70 -28 -180 -29 -100 -1 -127 2 -162 19
-24 11 -43 23 -43 28 0 4 -4 6 -9 3 -4 -3 -21 10 -37 29 -21 26 -29 47 -31 82
-5 79 -3 124 4 136 4 7 8 25 9 41 5 56 47 131 67 119 6 -3 7 -1 3 5 -9 15 25
90 56 122 13 14 34 40 47 58 13 18 25 31 27 29 2 -2 22 14 45 35 43 41 105 77
154 89 50 12 135 10 135 -3z m795 -17 c3 -5 0 -13 -6 -17 -7 -4 -9 -3 -5 4 3
5 0 13 -6 15 -9 4 -10 6 -1 6 6 1 14 -3 18 -8z m-2805 -5 c0 -2 -7 -7 -16 -10
-8 -3 -12 -2 -9 4 6 10 25 14 25 6z m50 -33 c-11 -8 -18 -18 -16 -22 3 -3 -3
-7 -13 -7 -10 0 -18 6 -18 13 0 7 4 10 9 7 4 -3 13 -2 19 2 8 5 8 9 -1 14 -7
4 -2 8 14 8 26 0 26 -1 6 -15z m2735 7 c3 -5 1 -10 -4 -10 -6 0 -11 5 -11 10
0 6 2 10 4 10 3 0 8 -4 11 -10z m-2847 -54 c-1 -14 -5 -23 -9 -20 -7 4 0 44 7
44 2 0 3 -11 2 -24z m127 14 c3 -5 1 -10 -4 -10 -6 0 -11 5 -11 10 0 6 2 10 4
10 3 0 8 -4 11 -10z m-73 -22 c-8 -8 -9 -15 0 -25 8 -11 7 -12 -6 -7 -18 7
-18 7 -10 28 3 9 11 16 17 16 8 0 7 -4 -1 -12z m89 -11 c-10 -9 -11 -8 -5 6 3
10 9 15 12 12 3 -3 0 -11 -7 -18z m2735 -3 c1 -9 0 -13 -4 -10 -3 4 -7 14 -8
22 -1 9 0 13 4 10 3 -4 7 -14 8 -22z m-2661 -2 c-3 -3 -11 0 -18 7 -9 10 -8
11 6 5 10 -3 15 -9 12 -12z m2519 6 c-3 -4 -11 -5 -19 -1 -21 7 -19 12 4 10
11 0 18 -5 15 -9z m-2770 -24 c3 -8 2 -12 -4 -9 -6 3 -10 10 -10 16 0 14 7 11
14 -7z m146 1 c0 -8 -2 -15 -4 -15 -2 0 -6 7 -10 15 -3 8 -1 15 4 15 6 0 10
-7 10 -15z m230 -21 c0 -8 -19 -13 -24 -6 -3 5 1 9 9 9 8 0 15 -2 15 -3z
m-367 -19 c-3 -9 -8 -14 -10 -11 -3 3 -2 9 2 15 9 16 15 13 8 -4z m402 5 c3
-6 -1 -7 -9 -4 -18 7 -21 14 -7 14 6 0 13 -4 16 -10z m-334 -23 c-10 -9 -11
-8 -5 6 3 10 9 15 12 12 3 -3 0 -11 -7 -18z m85 4 c0 -11 -4 -17 -8 -15 -4 3
-8 12 -8 20 0 8 4 14 8 14 4 0 8 -9 8 -19z m187 4 c4 -8 3 -16 -1 -19 -4 -3
-9 4 -9 15 -2 23 3 25 10 4z m-298 -25 c3 -5 1 -10 -4 -10 -6 0 -11 5 -11 10
0 6 2 10 4 10 3 0 8 -4 11 -10z m-64 -43 c-10 -9 -11 -8 -5 6 3 10 9 15 12 12
3 -3 0 -11 -7 -18z m193 4 c3 -4 -6 -6 -19 -3 -14 2 -25 6 -25 8 0 8 39 4 44
-5z m-67 -7 c-3 -3 -12 -4 -19 -1 -8 3 -5 6 6 6 11 1 17 -2 13 -5z m53 -14 c0
-5 -2 -10 -4 -10 -3 0 -8 5 -11 10 -3 6 -1 10 4 10 6 0 11 -4 11 -10z m-74
-12 c4 -7 3 -8 -4 -4 -7 4 -12 2 -12 -5 0 -7 -3 -10 -6 -6 -6 5 3 27 11 27 2
0 7 -5 11 -12z m-101 -8 c-3 -5 -12 -10 -18 -10 -7 0 -6 4 3 10 19 12 23 12
15 0z m128 -5 c-3 -9 -8 -14 -10 -11 -3 3 -2 9 2 15 9 16 15 13 8 -4z m43 -30
c1 -14 -2 -25 -7 -25 -5 0 -8 6 -6 13 1 6 -5 11 -13 9 -12 -2 -11 1 2 11 12 9
14 17 8 25 -7 9 -7 9 2 2 6 -5 12 -21 14 -35z m244 10 c0 -5 -5 -3 -10 5 -5 8
-10 20 -10 25 0 6 5 3 10 -5 5 -8 10 -19 10 -25z m200 -85 c15 -11 31 -31 34
-44 3 -14 11 -38 18 -53 13 -33 12 -28 21 -74 4 -21 14 -42 21 -48 8 -7 17
-27 20 -46 4 -19 13 -46 21 -61 8 -15 12 -31 9 -36 -3 -4 0 -8 5 -8 6 0 11 -8
11 -18 0 -10 7 -28 16 -40 8 -12 13 -22 10 -22 -3 0 1 -15 8 -32 7 -18 12 -37
11 -43 -6 -52 -20 -87 -40 -103 -13 -11 -22 -21 -20 -24 3 -2 -13 -15 -35 -27
-40 -22 -135 -37 -124 -19 3 5 0 8 -7 7 -39 -8 -68 32 -89 121 l-9 35 22 -25
c75 -87 228 -76 211 14 -9 49 -7 42 -48 141 -10 22 -36 90 -58 150 -23 61 -43
112 -45 114 -1 2 -19 4 -38 3 -27 -1 -35 2 -35 17 0 35 32 111 53 126 27 19
23 19 57 -5z m2355 11 c3 -5 2 -12 -3 -15 -5 -3 -9 1 -9 9 0 17 3 19 12 6z
m-2805 -22 c0 -5 -8 -9 -17 -8 -11 0 -13 3 -5 6 6 2 9 10 6 15 -4 7 -2 8 4 4
7 -4 12 -11 12 -17z m-122 -7 c14 12 14 11 2 -9 -15 -24 -30 -21 -29 5 0 11 2
13 6 4 4 -10 8 -10 21 0z m322 -17 c-7 -8 -16 -15 -21 -15 -5 0 -1 8 9 18 20
22 31 19 12 -3z m-265 -26 c11 -16 1 -19 -13 -3 -7 8 -8 14 -3 14 5 0 13 -5
16 -11z m26 -22 c-10 -9 -11 -8 -5 6 3 10 9 15 12 12 3 -3 0 -11 -7 -18z m-88
-36 c-4 -3 -12 -10 -16 -16 -5 -6 -7 -4 -4 5 2 8 -3 21 -12 28 -13 10 -11 10
12 1 15 -7 24 -15 20 -18z m32 9 c-3 -5 -1 -10 4 -10 6 0 11 -5 11 -11 0 -8
-5 -8 -15 1 -13 11 -12 30 1 30 3 0 2 -4 -1 -10z m33 -15 c-3 -3 -9 2 -12 12
-6 14 -5 15 5 6 7 -7 10 -15 7 -18z m31 12 c8 -10 7 -14 -2 -14 -8 0 -14 6
-14 14 0 7 1 13 2 13 2 0 8 -6 14 -13z m-130 -30 c8 -10 7 -14 -2 -14 -8 0
-14 6 -14 14 0 7 1 13 2 13 2 0 8 -6 14 -13z m46 4 c3 -5 2 -12 -3 -15 -5 -3
-9 1 -9 9 0 17 3 19 12 6z m2912 -13 c-3 -8 -6 -5 -6 6 -1 11 2 17 5 13 3 -3
4 -12 1 -19z m-2854 -9 c-4 -15 -8 -17 -14 -8 -8 14 -3 29 11 29 4 0 6 -9 3
-21z m310 -2 c3 -8 -1 -14 -8 -14 -7 0 -11 6 -8 14 3 7 6 13 8 13 2 0 5 -6 8
-13z m-356 -12 c0 -8 -4 -12 -9 -9 -5 3 -6 10 -3 15 9 13 12 11 12 -6z m129
-2 c-2 -10 -10 -19 -20 -19 -11 -2 -12 -1 -2 3 8 2 12 11 9 19 -3 8 -1 14 5
14 6 0 9 -8 8 -17z m382 -21 c6 -56 -55 -97 -86 -59 -26 31 16 100 57 95 21
-2 27 -9 29 -36z m-428 -1 c0 -4 -6 -8 -13 -8 -8 0 -14 6 -14 13 0 7 6 10 14
7 7 -3 13 -8 13 -12z m-40 -6 c0 -2 -6 -5 -13 -8 -8 -3 -14 1 -14 8 0 7 6 11
14 8 7 -3 13 -6 13 -8z m270 -9 c0 -2 -8 -10 -17 -17 -16 -13 -17 -12 -4 4 13
16 21 21 21 13z m-302 -29 c15 -18 1 -39 -18 -27 -12 8 -11 10 5 10 20 1 20 1
1 15 -11 8 -15 15 -9 15 6 0 15 -6 21 -13z m92 -25 c3 -2 -6 -1 -19 3 -16 5
-21 4 -17 -4 5 -7 1 -8 -10 -4 -11 4 -13 8 -6 11 7 2 9 8 6 14 -6 9 34 -8 46
-20z m-95 -30 c-3 -3 -11 0 -18 7 -9 10 -8 11 6 5 10 -3 15 -9 12 -12z m185
-9 c23 -45 115 -156 180 -215 37 -34 60 -64 60 -77 0 -21 -14 -28 -24 -13 -3
5 -21 8 -39 7 -28 -2 -37 2 -51 26 -19 33 -65 60 -115 68 l-34 6 -1 113 c-1
61 1 112 4 112 4 0 13 -12 20 -27z m190 -19 c0 -8 -5 -12 -10 -9 -6 4 -8 11
-5 16 9 14 15 11 15 -7z m-445 -12 c-3 -3 -11 0 -18 7 -9 10 -8 11 6 5 10 -3
15 -9 12 -12z m111 -41 c-2 -37 -10 -46 -24 -28 -9 10 -7 19 6 35 9 12 18 22
18 22 1 0 1 -13 0 -29z m-61 9 c3 -5 1 -10 -4 -10 -6 0 -11 5 -11 10 0 6 2 10
4 10 3 0 8 -4 11 -10z m-10 -28 c-3 -3 -11 0 -18 7 -9 10 -8 11 6 5 10 -3 15
-9 12 -12z m411 -28 c-3 -8 -1 -14 4 -14 6 0 10 -4 10 -8 0 -5 -6 -9 -13 -9
-7 0 -13 12 -12 28 0 15 4 25 8 22 5 -3 6 -11 3 -19z m-390 -6 c0 -10 -1 -18
-2 -18 0 0 -8 8 -17 18 -15 16 -15 18 1 18 10 0 18 -8 18 -18z m115 -5 c13
-16 12 -17 -3 -4 -10 7 -18 15 -18 17 0 8 8 3 21 -13z m-157 -18 c-4 -8 -8
-15 -10 -15 -2 0 -4 7 -4 15 0 8 4 15 10 15 5 0 7 -7 4 -15z m150 -21 c3 -8 2
-12 -4 -9 -6 3 -10 10 -10 16 0 14 7 11 14 -7z m-114 -9 c7 -8 9 -15 4 -15 -5
0 -2 -5 6 -10 10 -7 11 -10 2 -10 -7 0 -16 8 -19 18 -4 9 -11 20 -17 24 -8 5
-8 8 0 8 6 0 17 -7 24 -15z m-79 -28 c-10 -9 -11 -8 -5 6 3 10 9 15 12 12 3
-3 0 -11 -7 -18z m45 7 c-21 -21 -20 -27 3 -19 11 3 22 2 24 -3 7 -10 -38 -10
-49 0 -8 9 14 38 28 38 5 0 2 -7 -6 -16z m174 -24 c8 -5 11 -10 5 -10 -5 0
-17 5 -25 10 -8 5 -10 10 -5 10 6 0 17 -5 25 -10z m2005 -1 c-4 -5 -1 -9 5 -9
14 0 4 -56 -18 -92 -15 -26 -25 -32 -45 -29 -5 1 -5 -3 -2 -9 8 -13 -24 -52
-36 -44 -5 3 -12 -2 -15 -10 -4 -11 -14 -14 -29 -10 -22 5 -43 -11 -30 -24 3
-3 10 0 15 8 8 12 10 12 10 2 0 -8 -9 -16 -20 -19 -11 -3 -18 -9 -15 -13 5 -8
-49 -50 -65 -50 -6 0 -8 -4 -5 -10 3 -6 -4 -10 -17 -11 -13 0 -17 -3 -10 -6
10 -4 9 -8 -5 -19 -21 -15 -83 -19 -83 -4 0 5 -7 6 -17 3 -9 -4 -14 -2 -11 3
4 5 -29 10 -78 11 -85 1 -168 -15 -220 -42 -15 -7 -31 -12 -36 -9 -4 3 -8 1
-8 -5 0 -5 -22 -20 -50 -32 -27 -12 -50 -26 -50 -31 0 -4 -7 -8 -15 -8 -9 0
-27 -7 -40 -16 -13 -9 -29 -13 -35 -9 -6 4 -27 9 -47 11 -20 3 -41 8 -47 11
-6 4 -17 8 -25 10 -40 6 -61 14 -56 23 3 5 1 12 -5 15 -6 4 -9 1 -8 -7 3 -15
-13 -13 -90 9 -34 9 -52 19 -50 28 2 8 -1 14 -7 14 -5 0 -8 -8 -7 -17 3 -13 1
-14 -12 -3 -12 10 -13 17 -6 26 8 10 8 15 -1 21 -7 4 -9 3 -5 -4 3 -6 2 -13
-4 -17 -6 -4 -8 -10 -6 -14 3 -4 -4 -7 -14 -8 -11 -1 -23 3 -26 9 -5 7 -2 8 7
3 8 -5 11 -5 7 0 -4 4 -2 15 5 24 10 13 9 13 -11 -1 -23 -16 -62 -14 -62 3 0
5 -10 14 -22 20 -13 5 -28 21 -35 35 -10 22 -9 26 13 36 13 6 24 15 24 20 0 4
8 8 19 8 10 0 24 7 31 15 7 8 17 15 22 15 6 0 28 14 49 31 21 17 39 28 39 25
0 -4 18 5 40 19 22 14 46 25 53 25 7 0 17 4 22 9 6 6 24 12 41 15 17 3 48 12
70 19 21 7 50 13 64 12 14 -1 30 2 36 7 19 14 257 18 273 5 12 -9 13 -9 7 0
-5 10 21 12 116 12 68 -1 157 4 198 10 133 20 344 26 335 10z m-2075 -3 c0 -3
-4 -8 -10 -11 -5 -3 -10 -1 -10 4 0 6 5 11 10 11 6 0 10 -2 10 -4z m75 -45
c-4 -3 -10 1 -15 9 -9 14 -11 13 -14 -9 0 -5 -5 -13 -10 -18 -5 -4 -6 -3 -2 4
3 6 2 15 -4 18 -8 5 -7 11 1 21 10 13 14 12 30 -2 11 -10 17 -20 14 -23z
m-184 5 c5 3 9 1 9 -4 0 -11 -24 -22 -43 -21 -7 0 -3 4 8 9 l20 9 -20 0 c-17
1 -17 3 -5 11 10 6 16 6 18 0 2 -6 8 -8 13 -4z m59 -20 c-7 -7 -13 -7 -20 0
-6 6 -3 10 10 10 13 0 16 -4 10 -10z m398 -61 c13 -19 13 -19 9 3 -3 14 0 22
8 22 17 0 27 -42 12 -52 -9 -6 -9 -8 2 -8 8 0 11 -6 7 -16 -3 -8 1 -28 9 -45
9 -16 13 -29 10 -29 -10 0 -31 23 -44 48 -6 12 -19 22 -27 22 -8 0 -12 5 -9
10 3 6 1 10 -5 10 -7 0 -9 7 -6 16 5 14 4 15 -8 5 -11 -9 -15 -6 -19 14 -4 23
-2 26 22 23 14 -2 32 -12 39 -23z m-7 -99 c-6 -7 -7 -17 -3 -21 4 -5 1 -5 -6
-1 -7 4 -10 12 -7 17 4 5 0 9 -7 9 -10 0 -9 3 2 9 19 13 34 3 21 -13z m34 -41
c39 -1 49 -15 26 -38 -12 -12 -41 3 -41 22 0 12 -2 13 -8 3 -7 -9 -13 -7 -28
9 -11 14 -13 19 -4 14 8 -5 33 -9 55 -10z m103 -58 c5 7 22 3 50 -14 45 -27
49 -34 29 -51 -12 -10 -50 8 -47 22 0 4 -6 13 -13 21 -11 11 -17 11 -26 2 -10
-9 -15 -8 -24 4 -7 9 -18 15 -25 13 -7 -1 -8 0 -2 3 5 2 7 9 4 15 -4 5 6 2 21
-8 18 -12 29 -14 33 -7z m1380 -92 c40 -40 72 -87 71 -104 0 -11 -2 -12 -6 -3
-2 6 -11 12 -19 12 -8 0 -14 7 -14 16 0 8 -4 12 -10 9 -6 -4 -7 1 -3 12 6 16
5 17 -12 3 -14 -11 -17 -11 -11 -1 7 10 4 12 -12 7 -21 -7 -37 16 -25 37 3 7
2 9 -2 4 -9 -8 -45 20 -45 36 0 17 62 -2 88 -28z m-1196 -29 c-3 -4 -8 -2 -13
5 -4 7 -18 14 -30 14 -12 0 -24 6 -27 14 -3 8 0 11 6 7 6 -3 14 -2 17 4 8 13
54 -30 47 -44z m35 22 c2 -17 0 -19 -7 -8 -5 8 -6 18 -4 22 8 12 10 10 11 -14z
m94 -3 c-1 -5 -13 -9 -27 -7 -13 2 -23 -1 -22 -6 3 -10 -1 -12 -23 -12 -8 0
-9 4 0 13 6 8 8 16 6 19 -3 3 11 5 32 4 20 0 36 -5 34 -11z m79 -26 c0 -14
-17 -10 -23 5 -4 10 -1 13 9 9 7 -3 14 -9 14 -14z m-175 -8 c3 -5 2 -12 -3
-15 -5 -3 -9 1 -9 9 0 17 3 19 12 6z m154 -52 c28 -1 51 -6 51 -12 0 -6 4 -6
13 0 6 6 20 9 29 8 10 -2 20 0 23 5 6 9 53 1 61 -12 3 -5 11 -4 19 2 8 7 19 9
26 5 6 -4 -7 -15 -33 -27 -39 -18 -50 -19 -118 -8 -74 12 -140 33 -140 45 0 3
4 4 9 0 5 -3 32 -6 60 -6z m991 1 c0 -5 13 -10 29 -10 19 0 34 -8 44 -24 15
-22 15 -24 -3 -29 -11 -3 -23 0 -26 5 -4 7 -10 4 -16 -6 -5 -9 -14 -16 -19
-16 -6 0 -7 5 -4 10 3 6 -1 10 -9 10 -12 0 -16 10 -16 35 0 19 5 35 10 35 6 0
10 -4 10 -10z m80 -120 c0 -5 -5 -10 -11 -10 -5 0 -7 -6 -3 -12 5 -8 1 -8 -12
2 -10 8 -16 10 -12 6 4 -5 2 -16 -5 -24 -10 -13 -8 -15 13 -10 23 6 23 5 6 -5
-11 -7 -28 -20 -38 -29 -10 -10 -19 -18 -21 -18 -1 0 -3 22 -4 49 0 43 2 50
21 54 41 8 66 7 66 -3z m-1990 -55 c0 -14 -28 -24 -47 -18 -7 3 -13 11 -13 18
0 7 6 15 13 18 19 6 47 -4 47 -18z m35 -15 c8 0 19 -10 25 -22 10 -21 10 -21
-3 -6 -8 10 -17 15 -21 11 -9 -9 -26 17 -25 37 1 11 3 10 6 -2 2 -10 11 -18
18 -18z m35 10 c0 -5 -4 -10 -9 -10 -6 0 -13 5 -16 10 -3 6 1 10 9 10 9 0 16
-4 16 -10z m169 -28 c0 -67 52 -202 90 -236 28 -25 28 -56 1 -49 -11 3 -20 9
-20 14 0 5 -7 6 -17 2 -13 -5 -15 -2 -10 16 5 19 -2 25 -44 43 l-50 22 2 101
c1 55 3 103 5 107 8 12 43 -4 43 -20z m-120 1 c-6 -7 -15 -10 -20 -7 -13 8 -3
21 15 21 12 0 13 -4 5 -14z m-132 -8 c5 -4 2 -5 -4 -1 -8 4 -13 1 -13 -8 0
-21 19 -30 26 -12 6 15 44 18 44 4 0 -4 8 -8 18 -9 10 0 12 -3 4 -6 -6 -2 -9
-10 -6 -16 4 -7 -3 -2 -15 11 -24 25 -41 21 -41 -8 0 -10 -5 -22 -12 -26 -6
-4 -8 -3 -4 4 9 16 -14 26 -27 13 -9 -9 -7 -10 7 -5 14 5 17 4 11 -5 -4 -8 -2
-17 6 -22 10 -6 8 -8 -8 -6 -12 0 -21 4 -21 7 0 3 -1 7 -2 10 -1 3 -3 15 -4
27 -2 15 2 20 13 16 11 -3 10 0 -3 11 -15 12 -16 16 -5 16 12 0 12 2 -1 10
-12 8 -10 9 7 7 12 -2 26 -7 30 -12z m2033 1 c0 -3 -4 -8 -10 -11 -5 -3 -10
-1 -10 4 0 6 5 11 10 11 6 0 10 -2 10 -4z m-1896 -28 c-7 -10 9 -10 22 0 5 4
1 -1 -10 -11 -14 -13 -22 -15 -32 -6 -19 16 -17 25 5 25 11 0 17 -4 15 -8z
m1856 -10 c0 -20 -44 -128 -52 -128 -5 0 -8 25 -8 55 0 41 4 55 14 55 8 0 17
-6 19 -12 5 -12 11 16 8 35 0 4 4 7 9 7 6 0 10 -5 10 -12z m-1945 -26 c-3 -3
-11 0 -18 7 -9 10 -8 11 6 5 10 -3 15 -9 12 -12z m24 -38 c4 3 8 -1 8 -9 0
-11 -4 -12 -14 -3 -11 8 -12 7 -7 -6 3 -9 1 -16 -6 -16 -6 0 -9 4 -6 9 3 5 -4
11 -16 14 -15 4 -18 3 -10 -5 8 -8 6 -14 -10 -22 -32 -17 -45 -43 -29 -58 11
-11 12 -9 6 11 -5 18 -4 22 5 16 9 -6 11 -4 5 5 -6 9 -4 11 5 5 9 -6 11 -4 5
6 -7 11 -5 11 11 -1 29 -22 30 -24 11 -17 -13 5 -20 0 -27 -18 -8 -22 -12 -24
-29 -14 -10 7 -18 22 -17 35 0 12 4 20 9 17 4 -2 7 1 7 6 0 6 -4 11 -8 11 -5
0 -9 7 -9 15 0 14 35 21 75 16 7 -1 15 6 19 16 7 17 8 17 11 0 2 -9 7 -15 11
-13z m55 8 c3 -5 -1 -9 -9 -9 -8 0 -12 4 -9 9 3 4 7 8 9 8 2 0 6 -4 9 -8z
m-16 -36 c-10 -7 -14 -17 -10 -21 4 -5 1 -5 -7 0 -12 7 -11 10 4 22 24 17 36
17 13 -1z m-19 -92 c4 3 13 0 21 -5 12 -8 11 -9 -5 -7 -14 2 -24 -6 -35 -29
-17 -38 -25 -41 -27 -13 -1 13 2 18 10 14 8 -5 9 -4 2 4 -6 7 -25 15 -43 18
-28 6 -31 4 -26 -11 5 -13 9 -14 15 -3 7 10 9 11 9 0 0 -7 5 -10 10 -7 6 3 10
1 10 -6 0 -7 -13 -10 -34 -7 -20 2 -32 0 -29 -6 3 -5 1 -6 -6 -2 -9 6 -9 11 0
22 9 11 9 14 -1 14 -6 0 -10 5 -8 11 2 6 20 12 41 14 20 1 34 -2 31 -7 -3 -4
4 -8 15 -8 32 0 36 3 34 28 -1 19 0 19 4 2 2 -11 8 -18 12 -16z m28 21 c0 -8
-4 -12 -9 -9 -5 3 -6 10 -3 15 9 13 12 11 12 -6z m43 11 c0 -3 -4 -8 -10 -11
-5 -3 -10 -1 -10 4 0 6 5 11 10 11 6 0 10 -2 10 -4z m2330 -20 c0 -2 -6 -9
-14 -15 -11 -9 -16 -9 -22 0 -4 7 -3 9 4 5 6 -3 13 -2 17 4 6 10 15 14 15 6z
m-2328 -28 c-16 -16 -15 -31 1 -22 8 5 8 2 -2 -9 -12 -15 -9 -21 10 -19 3 1 6
-5 6 -12 0 -10 -7 -9 -31 3 -24 12 -27 16 -13 19 9 2 15 8 11 13 -6 10 13 39
24 39 3 0 1 -5 -6 -12z m2493 2 c3 -5 1 -10 -4 -10 -6 0 -11 5 -11 10 0 6 2
10 4 10 3 0 8 -4 11 -10z m99 1 c4 -5 -3 -7 -14 -4 -23 6 -26 13 -6 13 8 0 17
-4 20 -9z m58 -15 c3 2 8 -1 11 -9 3 -9 -5 -13 -32 -13 -20 -1 -28 1 -18 4 12
2 16 9 13 19 -5 12 -4 13 7 5 8 -7 16 -9 19 -6z m-2715 -11 c0 -8 -4 -12 -9
-9 -5 3 -6 10 -3 15 9 13 12 11 12 -6z m2463 -5 c-6 -11 -15 -20 -20 -20 -6 0
-2 9 7 20 10 11 19 20 21 20 1 0 -2 -9 -8 -20z m-150 1 c0 -5 -9 -7 -20 -4
-11 3 -20 7 -20 9 0 2 9 4 20 4 11 0 20 -4 20 -9z m51 -4 c-6 -8 -8 -16 -5
-20 3 -3 -1 -4 -10 -3 -8 1 -19 6 -23 11 -4 4 -3 5 3 2 7 -4 17 0 24 8 7 8 15
15 17 15 3 0 0 -6 -6 -13z m-2463 -24 c-10 -2 -18 -9 -18 -14 0 -6 4 -8 9 -5
5 4 12 0 14 -6 4 -9 8 -10 14 -2 8 12 40 11 51 -2 4 -4 -1 -4 -10 -1 -10 4
-24 -1 -34 -10 -15 -15 -15 -18 1 -30 17 -11 17 -13 2 -19 -22 -8 -22 -24 -1
-24 13 0 14 -3 4 -15 -12 -14 -35 -11 -26 4 3 4 0 13 -5 21 -8 13 -10 13 -19
0 -6 -9 -10 -10 -10 -3 0 6 5 15 10 18 6 4 8 11 5 16 -3 5 2 6 12 3 16 -5 16
-4 -1 10 -15 12 -16 16 -5 16 12 0 12 2 -1 10 -20 13 -33 12 -24 -2 4 -7 3 -8
-4 -4 -29 18 -8 45 33 44 17 0 17 -1 3 -5z m2416 -1 c3 -5 -1 -9 -9 -9 -8 0
-12 4 -9 9 3 4 7 8 9 8 2 0 6 -4 9 -8z m196 4 c0 -2 -8 -10 -17 -17 -16 -13
-17 -12 -4 4 13 16 21 21 21 13z m-2486 -14 c2 -4 -5 -9 -17 -9 -17 -2 -19 0
-7 7 18 12 18 12 24 2z m244 -17 c-3 -3 -9 2 -12 12 -6 14 -5 15 5 6 7 -7 10
-15 7 -18z m2122 4 c0 -5 -4 -9 -8 -9 -5 0 -9 7 -9 15 0 8 4 12 9 9 4 -3 8 -9
8 -15z m-2339 -22 c-10 -9 -11 -8 -5 6 3 10 9 15 12 12 3 -3 0 -11 -7 -18z
m2244 10 c12 -10 14 -16 7 -21 -15 -9 -54 12 -47 25 8 12 18 11 40 -4z m128
-2 c4 -8 3 -16 -1 -19 -4 -3 -9 4 -9 15 -2 23 3 25 10 4z m42 -4 c3 -5 0 -13
-6 -17 -7 -4 -9 -3 -5 4 3 5 0 13 -6 15 -9 4 -10 6 -1 6 6 1 14 -3 18 -8z m40
-10 c-3 -6 -11 -11 -17 -11 -6 0 -6 6 2 15 14 17 26 13 15 -4z m-2532 -16 c-4
-11 0 -14 13 -9 20 7 19 6 -7 -14 -13 -10 -15 -7 -15 18 0 16 3 27 7 24 5 -2
6 -11 2 -19z m284 10 c0 -8 -4 -12 -9 -9 -5 3 -6 10 -3 15 9 13 12 11 12 -6z
m2135 -3 c-16 -5 -5 -22 11 -18 7 1 9 1 4 -1 -11 -7 2 -23 20 -23 8 0 13 6 10
13 -3 7 5 13 21 14 14 0 20 -2 13 -6 -9 -6 -6 -14 8 -32 11 -13 20 -18 21 -11
0 6 5 12 10 12 6 0 9 -3 9 -7 -3 -21 2 -34 11 -28 6 4 8 10 5 15 -3 5 0 12 6
16 8 4 9 3 5 -4 -4 -7 -3 -12 2 -12 5 0 9 -6 9 -14 0 -8 -3 -14 -6 -13 -3 1
-16 -4 -28 -11 -17 -9 -23 -9 -29 0 -4 6 -2 14 4 16 7 2 12 8 12 13 0 6 -4 8
-9 5 -12 -8 -52 29 -43 39 4 5 1 5 -6 1 -10 -6 -10 -11 -1 -22 7 -9 8 -14 1
-14 -6 0 -19 -3 -29 -6 -15 -5 -15 -4 -3 5 13 9 11 13 -10 28 -14 10 -29 18
-34 18 -5 0 -11 6 -13 13 -3 6 0 12 7 12 6 0 8 4 5 10 -4 6 1 7 11 3 11 -4 13
-8 6 -11z m-2312 -7 c11 -13 10 -14 -6 -8 -16 6 -17 4 -6 -9 10 -13 10 -17 -4
-22 -9 -4 -19 -4 -22 -1 -3 3 0 5 6 5 7 0 12 4 12 9 0 5 -8 7 -19 4 -10 -3
-22 0 -25 5 -4 6 2 8 14 5 12 -3 22 1 26 11 8 20 8 20 24 1z m143 -10 c-3 -9
-8 -14 -10 -11 -3 3 -2 9 2 15 9 16 15 13 8 -4z m2277 -15 c0 -5 -5 -10 -11
-10 -5 0 -7 5 -4 10 3 6 8 10 11 10 2 0 4 -4 4 -10z m-2243 -32 c2 -17 0 -19
-7 -8 -5 8 -6 18 -4 22 8 12 10 10 11 -14z m-211 -13 c-3 -8 4 -21 17 -30 l21
-15 -22 0 c-12 0 -22 -5 -22 -12 0 -6 -3 -8 -6 -5 -4 4 -2 13 4 20 7 8 9 17 5
20 -3 4 -12 -1 -20 -11 -12 -16 -13 -16 -7 1 4 11 1 17 -7 17 -11 0 -11 2 1 9
8 6 18 7 22 5 4 -3 8 0 8 5 0 6 3 11 6 11 3 0 4 -7 0 -15z m29 -5 c-3 -4 0
-11 5 -13 6 -3 5 -4 -2 -3 -7 1 -15 11 -16 21 -3 11 0 15 7 10 6 -3 9 -10 6
-15z m240 11 c3 -5 2 -12 -3 -15 -5 -3 -9 1 -9 9 0 17 3 19 12 6z m-908 -7
c-3 -3 -12 -4 -19 -1 -8 3 -5 6 6 6 11 1 17 -2 13 -5z m362 3 c-2 -1 -13 -9
-24 -17 -19 -14 -19 -14 -6 3 7 9 18 17 24 17 6 0 8 -1 6 -3z m2356 -25 c-3
-3 -11 0 -18 7 -9 10 -8 11 6 5 10 -3 15 -9 12 -12z m297 -11 c-3 -8 -1 -12 5
-8 5 3 10 0 10 -8 0 -8 -3 -13 -5 -10 -3 3 -11 0 -18 -6 -10 -8 -12 -6 -9 12
3 13 -1 26 -8 31 -7 4 -4 7 10 6 14 -2 19 -7 15 -17z m-1964 -10 c2 -6 7 -9
12 -6 14 8 53 -54 45 -73 -5 -14 -7 -14 -15 -2 -8 13 -13 13 -32 1 -14 -8 -18
-9 -12 -1 13 13 7 50 -7 50 -5 0 -15 -13 -24 -29 -8 -16 -18 -31 -22 -33 -5
-3 -2 -3 5 -2 6 2 12 -1 12 -7 0 -6 7 -9 15 -5 8 3 15 2 15 -3 0 -5 11 -7 25
-6 14 2 23 -2 22 -8 -1 -7 4 -11 11 -9 6 1 12 -5 12 -13 0 -8 6 -12 14 -9 16
6 24 -11 22 -46 0 -15 -7 -25 -16 -25 -8 0 -14 8 -14 17 1 10 -2 15 -7 12 -8
-5 -14 17 -10 39 0 4 -4 7 -9 7 -5 0 -10 -4 -10 -10 0 -5 -6 -7 -14 -4 -8 3
-25 0 -38 -6 -20 -10 -21 -10 -6 3 10 8 15 17 11 20 -9 9 -23 9 -22 0 3 -20
-3 -24 -18 -13 -10 7 -6 1 9 -13 15 -14 24 -28 20 -32 -4 -4 0 -6 8 -5 35 5
50 -1 50 -19 0 -21 -32 -37 -51 -25 -8 4 -9 3 -5 -4 4 -7 1 -12 -8 -12 -9 0
-16 -4 -16 -8 0 -5 -20 -23 -44 -40 -25 -18 -47 -41 -51 -51 -3 -11 -12 -22
-20 -24 -13 -6 -11 7 12 73 5 13 11 48 15 85 1 15 -9 83 -22 139 -8 36 -8 52
1 62 6 8 8 14 3 14 -4 0 -3 5 3 11 8 8 17 8 31 0 15 -8 23 -7 35 7 18 19 79
22 85 3z m-493 0 c3 -6 -5 -15 -17 -21 -21 -10 -21 -10 -6 3 10 8 15 17 11 20
-3 4 -4 7 0 7 3 0 8 -4 12 -9z m-60 -22 c-8 -12 -32 -12 -40 1 -3 6 1 7 9 4 9
-3 16 -1 16 6 0 6 5 8 10 5 6 -4 8 -11 5 -16z m68 -19 c-3 -11 -9 -17 -15 -14
-5 3 -4 12 3 20 16 19 18 18 12 -6z m100 -6 c-3 -9 0 -20 8 -25 9 -6 10 -9 2
-9 -6 0 -15 5 -18 10 -7 11 0 40 9 40 3 0 3 -7 -1 -16z m2449 -9 c-6 -36 -19
-40 -14 -4 2 16 8 29 12 29 4 0 5 -11 2 -25z m-2599 6 c21 9 21 9 4 -5 -21
-16 -51 -11 -40 7 5 8 8 7 11 -1 3 -9 9 -9 25 -1z m2317 -12 c0 -5 4 -8 9 -4
5 3 12 1 15 -4 3 -5 -3 -11 -14 -14 -11 -3 -18 0 -17 7 1 6 -4 10 -11 8 -8 -1
-11 2 -7 8 8 13 25 13 25 -1z m-2182 -25 c1 -1 -5 -4 -15 -6 -13 -4 -19 0 -19
13 0 14 3 16 16 6 8 -6 16 -12 18 -13z m536 -10 c3 -8 1 -14 -5 -14 -6 0 -7
-5 -3 -12 4 -7 3 -8 -4 -4 -7 4 -12 13 -12 20 0 8 -8 20 -17 27 -15 12 -16 12
-9 -6 5 -15 4 -17 -5 -8 -6 6 -8 16 -5 22 8 13 53 -6 60 -25z m1826 16 c-13
-24 -14 -24 -31 -3 -8 9 -9 14 -4 11 6 -4 17 -3 25 3 21 13 22 11 10 -11z
m-2547 -10 c-6 -23 15 -28 35 -8 9 9 12 9 12 0 0 -7 -4 -12 -8 -12 -5 0 -17
-7 -28 -16 -18 -14 -18 -15 4 -4 25 12 42 6 42 -16 0 -9 5 -12 12 -8 7 5 8 3
4 -5 -6 -9 -12 -9 -25 3 -10 9 -24 16 -31 16 -9 0 -7 -5 6 -16 18 -15 17 -15
-6 -1 -24 14 -34 46 -25 75 7 20 14 14 8 -8z m2502 1 c3 -5 2 -12 -3 -15 -5
-3 -9 1 -9 9 0 17 3 19 12 6z m-2297 -25 c-2 -20 -5 -22 -19 -13 -10 6 -15 15
-12 20 3 5 9 3 14 -4 7 -11 9 -10 9 4 0 9 2 17 5 17 3 0 4 -11 3 -24z m-98
-11 c-7 -8 -17 -15 -23 -15 -6 0 -2 7 9 15 25 19 30 19 14 0z m58 -16 c-17
-11 2 -30 23 -24 29 9 23 -4 -7 -15 -14 -6 -23 -14 -19 -19 3 -6 -4 -9 -15 -8
-24 2 -27 17 -4 17 12 0 14 3 6 13 -6 7 -7 18 -2 26 4 8 5 21 2 30 -5 14 -4
14 10 1 10 -9 12 -17 6 -21z m2228 -5 c-7 -7 -15 -8 -22 -3 -13 11 -24 1 -18
-15 3 -7 -2 -18 -10 -25 -15 -13 -11 -45 5 -35 5 3 6 -3 3 -13 -4 -14 -1 -12
15 6 12 13 21 18 21 13 0 -6 -11 -23 -25 -38 -16 -18 -23 -21 -19 -10 6 16 4
16 -13 6 -17 -11 -23 -10 -42 9 -26 26 -26 27 0 34 12 3 18 10 14 16 -3 6 1
11 9 11 8 0 23 17 32 37 10 20 20 31 22 25 2 -7 8 -12 13 -12 4 0 5 8 2 17 -6
15 -5 16 9 3 11 -10 12 -17 4 -26z m358 22 c-5 -13 -44 -30 -44 -19 0 7 33 32
42 33 4 0 5 -6 2 -14z m-1984 -12 c0 -2 -9 -4 -20 -4 -11 0 -20 4 -20 9 0 5 9
7 20 4 11 -3 20 -7 20 -9z m44 3 c15 3 25 -1 29 -11 6 -16 -4 -25 -35 -30 -7
-1 -23 -8 -36 -15 -22 -12 -23 -11 -12 10 11 19 10 21 -4 16 -8 -3 -18 -2 -21
3 -3 5 9 7 25 5 28 -4 31 -2 26 18 -3 12 -3 17 -1 11 3 -6 16 -9 29 -7z m1510
-3 c3 -8 2 -12 -4 -9 -6 3 -10 10 -10 16 0 14 7 11 14 -7z m276 12 c0 -2 -8
-10 -17 -17 -16 -13 -17 -12 -4 4 13 16 21 21 21 13z m-180 -33 c0 -5 -13 -17
-28 -27 l-27 -19 24 26 c26 28 31 32 31 20z m-2344 -47 c-3 -15 2 -30 12 -38
13 -11 15 -10 10 9 -4 13 -2 26 3 29 9 5 13 -9 9 -36 -1 -8 6 -5 17 9 13 16
22 20 27 13 4 -6 -2 -17 -14 -24 -11 -7 -20 -18 -20 -25 0 -7 -8 -14 -17 -14
-17 -1 -17 -2 0 -6 15 -4 16 -7 5 -20 -7 -9 -12 -18 -10 -20 1 -1 2 -15 1 -30
0 -26 -1 -26 -9 -7 -5 12 -13 25 -19 29 -6 3 -11 15 -11 27 0 20 1 20 18 -2
14 -18 19 -19 19 -7 0 9 -4 14 -8 11 -4 -2 -6 8 -3 22 5 25 3 26 -13 13 -17
-13 -17 -13 -4 4 12 16 12 20 -2 34 -12 12 -13 20 -4 34 16 25 18 24 13 -5z
m654 5 c0 -6 -4 -12 -8 -15 -5 -3 -9 1 -9 9 0 8 4 15 9 15 4 0 8 -4 8 -9z
m-685 -30 c3 -5 1 -12 -5 -16 -5 -3 -10 1 -10 9 0 18 6 21 15 7z m78 -116 c-3
-9 -8 -14 -10 -11 -3 3 -2 9 2 15 9 16 15 13 8 -4z m7 -29 c0 -3 -4 -8 -10
-11 -5 -3 -10 -1 -10 4 0 6 5 11 10 11 6 0 10 -2 10 -4z m-36 -110 c-5 -15 -3
-18 10 -13 10 4 15 3 11 -3 -10 -17 -35 -11 -36 8 0 10 -3 12 -6 5 -6 -16 -43
2 -43 20 0 7 4 6 10 -3 9 -14 14 -7 11 13 -1 5 3 6 8 3 5 -4 13 -1 17 5 10 17
25 -12 18 -35z m136 30 c0 -3 -4 -8 -10 -11 -5 -3 -10 -1 -10 4 0 6 5 11 10
11 6 0 10 -2 10 -4z m0 -35 c0 -3 -11 -16 -25 -29 l-25 -24 11 30 c5 16 16 29
24 29 8 0 15 -3 15 -6z m-86 -92 c-9 -10 -21 -16 -27 -12 -6 4 -3 11 7 19 11
8 15 18 10 26 -6 10 -4 10 9 -1 16 -13 16 -15 1 -32z m66 18 c0 -4 4 -6 8 -3
5 3 9 -2 9 -10 0 -10 -4 -11 -11 -4 -14 14 -39 13 -30 -2 5 -7 3 -8 -7 -3 -12
7 -12 6 -1 -8 11 -12 11 -20 2 -34 -10 -16 -11 -16 -6 0 6 17 -8 24 -18 8 -13
-20 -58 -22 -73 -4 -14 17 -14 17 -10 -4 5 -22 4 -22 -18 -5 l-23 17 25 7 c17
5 30 2 40 -8 20 -19 29 -18 12 3 -13 15 -12 15 6 6 15 -8 23 -8 32 2 6 7 9 15
6 19 -3 3 2 8 11 12 9 3 14 9 12 13 -3 4 4 7 15 7 10 0 19 -4 19 -9z m-370
-53 c0 -8 -19 -13 -24 -6 -3 5 1 9 9 9 8 0 15 -2 15 -3z m380 -18 c-7 -7 -14
-6 -21 1 -9 9 -7 12 9 10 14 -1 18 -5 12 -11z m2633 7 c-7 -2 -19 -2 -25 0 -7
3 -2 5 12 5 14 0 19 -2 13 -5z m-2647 -49 c2 -11 -3 -14 -14 -9 -13 5 -12 1 4
-16 10 -12 13 -19 7 -15 -16 9 -16 1 -2 -26 9 -16 8 -23 -2 -29 -12 -7 -12 -9
0 -9 8 0 12 -2 9 -5 -3 -3 -18 1 -34 10 l-29 15 27 0 c21 0 26 4 21 16 -5 13
-7 13 -14 2 -12 -19 -11 0 1 23 8 15 7 19 -4 19 -10 0 -13 6 -10 15 4 8 13 15
21 15 8 0 11 5 7 13 -4 6 -3 8 1 4 5 -4 10 -15 11 -23z m2511 -36 c8 -6 13 -6
13 -1 0 5 23 11 52 12 28 1 49 -1 46 -5 -4 -3 -10 -6 -15 -6 -4 0 -14 -5 -22
-11 -12 -10 -13 -9 -7 1 6 10 2 13 -15 10 -13 -2 -27 -7 -31 -13 -5 -6 -12 -5
-20 3 -14 14 -32 16 -23 2 3 -5 0 -10 -8 -10 -8 0 -17 6 -20 13 -6 16 32 20
50 5z m-2573 -33 c-4 -8 -11 -12 -16 -9 -6 4 -5 10 3 15 19 12 19 11 13 -6z
m2561 -15 c-3 -5 -12 -10 -18 -10 -7 0 -6 4 3 10 19 12 23 12 15 0z m-2615
-10 c0 -5 -2 -10 -4 -10 -3 0 -8 5 -11 10 -3 6 -1 10 4 10 6 0 11 -4 11 -10z
m2670 4 c0 -8 -19 -13 -24 -6 -3 5 1 9 9 9 8 0 15 -2 15 -3z m155 -4 c3 -5 1
-10 -4 -10 -6 0 -11 5 -11 10 0 6 2 10 4 10 3 0 8 -4 11 -10z m62 4 c-3 -3
-12 -4 -19 -1 -8 3 -5 6 6 6 11 1 17 -2 13 -5z m62 -20 c2 -2 -6 -2 -18 -1
-11 1 -23 7 -26 14 -4 11 0 11 18 2 12 -6 24 -13 26 -15z m208 19 c-4 -3 -1
-13 6 -21 9 -13 9 -14 0 -8 -7 4 -13 2 -13 -3 0 -6 -5 -11 -11 -11 -8 0 -8 5
1 15 8 10 9 15 2 15 -6 0 -15 -7 -20 -16 -8 -15 -10 -15 -15 0 -4 10 -3 15 3
11 6 -3 10 -2 10 4 0 5 8 12 18 14 9 3 19 5 21 6 2 0 1 -2 -2 -6z m-297 -17
c0 -2 -7 -7 -16 -10 -8 -3 -12 -2 -9 4 6 10 25 14 25 6z m130 -16 c0 -5 -5
-10 -11 -10 -5 0 -7 5 -4 10 3 6 8 10 11 10 2 0 4 -4 4 -10z m304 2 c3 -5 -1
-9 -9 -9 -8 0 -12 4 -9 9 3 4 7 8 9 8 2 0 6 -4 9 -8z"/>
<path d="M2574 2935 c-3 -8 -3 -18 0 -24 3 -5 0 -11 -6 -14 -7 -2 0 -4 16 -4
34 -1 50 -21 33 -43 -6 -8 -2 -6 11 4 23 20 30 32 12 21 -5 -3 -10 -1 -10 5 0
6 -11 15 -25 20 -14 5 -25 17 -25 26 0 14 2 15 18 3 15 -13 16 -12 3 4 -16 21
-20 21 -27 2z"/>
<path d="M2425 2850 c-3 -6 1 -7 9 -4 18 7 21 14 7 14 -6 0 -13 -4 -16 -10z"/>
<path d="M2706 2843 c-6 -14 -5 -15 5 -6 7 7 10 15 7 18 -3 3 -9 -2 -12 -12z"/>
<path d="M2587 2835 c-4 -8 -3 -16 1 -19 4 -3 9 4 9 15 2 23 -3 25 -10 4z"/>
<path d="M2675 2829 c-4 -6 -5 -12 -2 -15 2 -3 7 2 10 11 7 17 1 20 -8 4z"/>
<path d="M2447 2804 c2 -6 -10 -22 -26 -34 -17 -12 -31 -18 -31 -13 0 4 -32
-25 -70 -66 -140 -147 -193 -341 -114 -415 35 -32 144 -35 224 -6 30 12 60 22
65 23 14 3 63 45 102 86 80 85 112 261 62 350 -40 72 -43 76 -69 78 -14 1 -44
4 -67 6 -23 2 -40 0 -37 -5 3 -4 -2 -8 -11 -8 -9 0 -14 4 -11 8 3 5 -1 9 -8 9
-8 0 -12 -6 -9 -13z m134 -24 c25 -14 24 -45 -1 -70 -15 -15 -33 -20 -69 -20
-79 0 -98 49 -31 82 40 20 73 23 101 8z"/>
<path d="M2335 2780 c-3 -5 -1 -10 4 -10 6 0 11 5 11 10 0 6 -2 10 -4 10 -3 0
-8 -4 -11 -10z"/>
<path d="M2770 2776 c0 -2 7 -9 15 -16 13 -11 14 -10 9 4 -5 14 -24 23 -24 12z"/>
<path d="M2300 2750 c-9 -6 -10 -10 -3 -10 6 0 15 5 18 10 8 12 4 12 -15 0z"/>
<path d="M585 2150 c3 -5 8 -10 11 -10 2 0 4 5 4 10 0 6 -5 10 -11 10 -5 0 -7
-4 -4 -10z"/>
<path d="M2296 1975 c-3 -8 -1 -15 4 -15 6 0 10 7 10 15 0 8 -2 15 -4 15 -2 0
-6 -7 -10 -15z"/>
<path d="M2516 1947 c3 -10 9 -15 12 -12 3 3 0 11 -7 18 -10 9 -11 8 -5 -6z"/>
<path d="M1925 1939 c-4 -6 -5 -12 -2 -15 2 -3 7 2 10 11 7 17 1 20 -8 4z"/>
<path d="M2090 1946 c0 -2 8 -10 18 -17 15 -13 16 -12 3 4 -13 16 -21 21 -21
13z"/>
<path d="M2275 1939 c-11 -16 -1 -19 13 -3 7 8 8 14 3 14 -5 0 -13 -5 -16 -11z"/>
<path d="M2448 1943 c7 -3 16 -2 19 1 4 3 -2 6 -13 5 -11 0 -14 -3 -6 -6z"/>
<path d="M2195 1929 c-4 -6 -5 -12 -2 -15 2 -3 7 2 10 11 7 17 1 20 -8 4z"/>
<path d="M2363 1921 c0 -11 5 -18 9 -15 4 3 5 11 1 19 -7 21 -12 19 -10 -4z"/>
<path d="M2425 1920 c2 -27 15 -38 15 -12 0 11 -4 23 -8 26 -5 3 -8 -4 -7 -14z"/>
<path d="M2034 1922 c-6 -4 -11 -15 -11 -24 0 -10 3 -16 5 -13 3 3 15 -3 26
-12 21 -18 21 -18 5 2 -9 11 -15 28 -14 38 4 19 4 19 -11 9z"/>
<path d="M1880 1895 c-7 -8 -9 -15 -4 -15 5 0 -2 -9 -16 -20 -24 -19 -24 -19
-2 -13 12 3 22 10 22 15 0 6 7 5 15 -2 9 -7 15 -8 15 -2 0 5 -7 13 -16 16 -13
5 -14 9 -4 21 7 8 10 15 7 15 -2 0 -10 -7 -17 -15z"/>
<path d="M1976 1894 c1 -6 -2 -16 -7 -21 -6 -6 -4 -10 5 -10 8 0 13 4 10 9 -3
4 0 8 5 8 6 0 11 5 11 11 0 5 -4 8 -9 5 -5 -4 -11 -3 -14 1 -2 5 -3 3 -1 -3z"/>
<path d="M2090 1900 c-9 -6 -10 -10 -3 -10 6 0 15 5 18 10 8 12 4 12 -15 0z"/>
<path d="M2495 1900 c3 -5 8 -10 11 -10 2 0 4 5 4 10 0 6 -5 10 -11 10 -5 0
-7 -4 -4 -10z"/>
<path d="M1841 1884 c0 -11 3 -14 6 -6 3 7 2 16 -1 19 -3 4 -6 -2 -5 -13z"/>
<path d="M2227 1881 c-4 -17 -3 -21 5 -13 5 5 8 16 6 23 -3 8 -7 3 -11 -10z"/>
<path d="M1803 1875 c-3 -9 -3 -18 -1 -21 3 -3 8 4 11 16 6 23 -1 27 -10 5z"/>
<path d="M2150 1886 c0 -2 7 -7 16 -10 8 -3 12 -2 9 4 -6 10 -25 14 -25 6z"/>
<path d="M2319 1873 c-13 -16 -12 -17 4 -4 9 7 17 15 17 17 0 8 -8 3 -21 -13z"/>
<path d="M2401 1880 c-7 -4 1 -7 18 -8 17 0 31 1 31 3 0 7 -39 12 -49 5z"/>
<path d="M2499 1869 l-24 -20 28 17 c15 9 27 18 27 20 0 8 -8 4 -31 -17z"/>
<path d="M2125 1871 c-3 -5 -2 -12 3 -15 5 -3 9 1 9 9 0 17 -3 19 -12 6z"/>
<path d="M1562 1861 c-11 -7 -11 -9 0 -14 9 -3 15 1 15 9 0 8 -1 14 -1 14 -1
0 -7 -4 -14 -9z"/>
<path d="M1706 1859 c7 -12 -20 -17 -39 -7 -12 6 -17 5 -15 -4 2 -8 -10 -14
-34 -16 -21 -2 -38 -8 -38 -13 0 -6 -11 2 -25 17 -14 15 -25 22 -25 15 0 -6 7
-14 15 -17 8 -4 15 -10 15 -15 0 -4 -7 -5 -17 -2 -11 4 -14 3 -9 -5 5 -8 0
-12 -14 -12 -14 0 -19 -4 -14 -12 5 -8 2 -9 -9 -5 -28 11 -19 -1 14 -17 25
-13 29 -13 19 -1 -10 12 -8 13 9 10 12 -2 27 -7 34 -11 8 -6 8 -3 -1 9 -12 15
-11 15 20 7 44 -13 45 -13 22 6 -10 8 -13 13 -6 9 6 -3 12 -2 12 3 0 5 9 12
20 15 11 3 20 0 20 -6 0 -7 4 -6 9 3 6 8 25 14 45 14 20 0 36 3 36 7 0 4 9 11
21 14 11 4 18 9 15 13 -8 8 -85 9 -80 1z"/>
<path d="M2183 1846 c18 -14 18 -14 0 -19 -15 -4 -16 -5 -1 -6 27 -2 31 17 6
29 -21 10 -22 10 -5 -4z"/>
<path d="M2049 1848 c-5 -18 -6 -38 -1 -34 7 8 12 36 6 36 -2 0 -4 -1 -5 -2z"/>
<path d="M1903 1821 c1 -14 9 -26 17 -28 10 -3 11 -2 4 4 -7 4 -14 17 -17 28
-5 16 -5 15 -4 -4z"/>
<path d="M2120 1831 c0 -14 28 -32 54 -35 14 -2 23 1 20 6 -3 5 -12 7 -19 4
-7 -2 -21 2 -32 10 -16 12 -16 13 0 8 9 -3 17 -1 17 5 0 6 -9 11 -20 11 -11 0
-20 -4 -20 -9z"/>
<path d="M1843 1808 c-2 -16 1 -18 10 -9 7 7 8 14 1 21 -6 6 -10 2 -11 -12z"/>
<path d="M1930 1825 c0 -6 5 -16 12 -23 9 -9 4 -14 -20 -23 -18 -6 -29 -15
-26 -21 4 -6 9 -6 14 2 4 7 15 10 25 7 9 -4 13 -3 10 3 -7 11 29 32 39 23 10
-11 7 -23 -6 -19 -7 1 -10 1 -5 -1 4 -3 5 -9 1 -14 -3 -5 -1 -9 5 -9 5 0 13 9
16 20 4 12 11 17 18 14 7 -4 9 -4 5 1 -4 4 -3 13 2 20 7 8 5 12 -5 12 -8 0
-12 -4 -9 -8 2 -4 0 -10 -5 -13 -5 -4 -12 3 -16 14 -4 11 -11 18 -16 14 -5 -3
-7 -10 -4 -15 4 -5 2 -9 -4 -9 -5 0 -15 8 -20 18 -6 9 -11 12 -11 7z"/>
<path d="M2309 1819 c-10 -6 -11 -9 -1 -9 7 0 11 -4 8 -9 -4 -5 1 -8 10 -7 24
4 37 32 15 33 -9 1 -24 -3 -32 -8z m31 -9 c0 -5 -2 -10 -4 -10 -3 0 -8 5 -11
10 -3 6 -1 10 4 10 6 0 11 -4 11 -10z"/>
<path d="M1711 1797 c-13 -21 -12 -21 5 -5 10 10 16 20 13 22 -3 3 -11 -5 -18
-17z"/>
<path d="M2269 1815 c-1 -3 -2 -9 -3 -14 0 -5 -4 -13 -8 -17 -12 -11 -10 -24
4 -24 6 0 8 3 5 7 -4 3 -2 12 4 20 6 7 8 13 3 13 -5 0 -2 5 6 10 10 6 11 10 3
10 -7 0 -14 -2 -14 -5z"/>
<path d="M1748 1787 c3 -12 1 -18 -5 -14 -5 3 -10 0 -10 -8 0 -11 4 -12 13 -4
7 6 18 8 25 4 8 -6 8 -2 0 12 -6 11 -8 22 -6 25 3 3 -1 5 -9 5 -8 0 -11 -8 -8
-20z"/>
<path d="M2367 1796 c-3 -8 -2 -18 3 -21 13 -8 24 15 12 27 -6 6 -11 4 -15 -6z"/>
<path d="M2438 1803 c7 -3 16 -2 19 1 4 3 -2 6 -13 5 -11 0 -14 -3 -6 -6z"/>
<path d="M1665 1790 c-16 -7 -17 -9 -3 -9 9 -1 20 4 23 9 7 11 7 11 -20 0z"/>
<path d="M1785 1790 c-3 -6 1 -7 9 -4 18 7 21 14 7 14 -6 0 -13 -4 -16 -10z"/>
<path d="M1866 1792 c-3 -4 4 -9 15 -9 23 -2 25 3 4 10 -8 4 -16 3 -19 -1z"/>
<path d="M2033 1785 c0 -8 4 -12 9 -9 5 3 6 10 3 15 -9 13 -12 11 -12 -6z"/>
<path d="M2286 1775 c-9 -26 -7 -32 5 -12 6 10 9 21 6 23 -2 3 -7 -2 -11 -11z"/>
<path d="M2427 1778 c-3 -8 5 -14 19 -14 15 -1 21 3 17 12 -6 17 -29 18 -36 2z"/>
<path d="M1849 1761 c7 -11 7 -22 1 -29 -7 -9 -7 -9 2 -2 17 14 18 38 2 44
-11 4 -12 1 -5 -13z"/>
<path d="M2216 1767 c3 -10 9 -15 12 -12 3 3 0 11 -7 18 -10 9 -11 8 -5 -6z"/>
<path d="M1476 1745 c5 -29 -3 -32 -22 -7 -13 16 -14 16 -8 -1 4 -10 15 -22
27 -28 18 -10 19 -9 15 15 -4 17 -1 25 6 23 6 -3 10 -10 8 -16 -1 -7 2 -10 8
-6 13 8 5 22 -20 35 -16 9 -18 7 -14 -15z"/>
<path d="M1393 1745 c0 -8 4 -12 9 -9 5 3 6 10 3 15 -9 13 -12 11 -12 -6z"/>
<path d="M1580 1750 c-8 -5 -10 -10 -5 -10 6 0 17 5 25 10 8 5 11 10 5 10 -5
0 -17 -5 -25 -10z"/>
<path d="M1647 1740 c-9 -11 -13 -20 -9 -21 4 0 15 -2 25 -4 9 -2 15 0 12 5
-7 11 20 31 30 22 5 -4 5 -1 0 6 -5 10 -10 11 -18 3 -14 -14 -30 -14 -22 -1
10 17 0 11 -18 -10z"/>
<path d="M1532 1725 c-12 -14 -17 -25 -11 -25 6 0 9 -7 6 -15 -4 -8 -1 -17 5
-21 7 -4 8 -3 4 4 -4 7 -2 12 4 12 6 0 15 -10 20 -22 6 -17 9 -18 9 -6 1 9 -4
20 -9 23 -8 5 -8 11 0 20 8 10 8 15 -1 21 -8 4 -9 3 -5 -4 4 -7 1 -12 -10 -12
-15 0 -15 2 0 25 9 14 15 25 13 25 -2 0 -13 -11 -25 -25z"/>
<path d="M2131 1747 c2 -1 13 -9 24 -17 19 -14 19 -14 6 3 -7 9 -18 17 -24 17
-6 0 -8 -1 -6 -3z"/>
<path d="M2327 1736 c-3 -8 -2 -18 3 -21 13 -8 24 15 12 27 -6 6 -11 4 -15 -6z"/>
<path d="M1596 1732 c-3 -5 1 -9 9 -9 8 0 12 4 9 9 -3 4 -7 8 -9 8 -2 0 -6 -4
-9 -8z"/>
<path d="M1747 1733 c-13 -12 -7 -23 11 -22 10 0 12 3 4 6 -6 2 -10 9 -6 14 6
10 0 12 -9 2z"/>
<path d="M1693 1716 c0 -6 9 -13 19 -13 10 -1 18 0 18 2 0 2 -8 9 -18 14 -14
7 -19 6 -19 -3z"/>
<path d="M1879 1713 c-13 -16 -12 -17 4 -4 9 7 17 15 17 17 0 8 -8 3 -21 -13z"/>
<path d="M1415 1710 c-4 -6 1 -7 11 -3 13 5 15 3 9 -7 -5 -9 -4 -11 4 -6 6 4
9 12 6 17 -8 12 -22 12 -30 -1z"/>
<path d="M1926 1697 c3 -10 9 -15 12 -12 3 3 0 11 -7 18 -10 9 -11 8 -5 -6z"/>
<path d="M1640 1680 c-6 -11 -8 -20 -6 -20 3 0 10 9 16 20 6 11 8 20 6 20 -3
0 -10 -9 -16 -20z"/>
<path d="M1768 1693 c7 -3 16 -2 19 1 4 3 -2 6 -13 5 -11 0 -14 -3 -6 -6z"/>
<path d="M1606 1675 c-3 -8 -1 -15 4 -15 6 0 10 7 10 15 0 8 -2 15 -4 15 -2 0
-6 -7 -10 -15z"/>
<path d="M1785 1659 c-4 -6 -4 -13 -1 -16 3 -4 6 -1 6 6 0 7 5 9 12 5 7 -4 8
-3 4 4 -9 15 -13 15 -21 1z"/>
<path d="M1596 1637 c3 -10 9 -15 12 -12 3 3 0 11 -7 18 -10 9 -11 8 -5 -6z"/>
<path d="M1620 1626 c0 -8 4 -17 8 -20 4 -2 8 4 8 15 0 10 -4 19 -8 19 -4 0
-8 -6 -8 -14z"/>
<path d="M995 1742 c-6 -6 4 -22 15 -22 4 0 10 6 13 13 5 13 -17 20 -28 9z"/>
<path d="M2446 1583 c-6 -14 -5 -15 5 -6 7 7 10 15 7 18 -3 3 -9 -2 -12 -12z"/>
<path d="M506 1342 c-3 -4 4 -9 15 -9 23 -2 25 3 4 10 -8 4 -16 3 -19 -1z"/>
<path d="M515 1170 c4 -6 11 -8 16 -5 14 9 11 15 -7 15 -8 0 -12 -5 -9 -10z"/>
<path d="M1002 798 c-7 -7 -12 -17 -12 -22 0 -6 4 -5 9 3 7 10 12 11 27 1 16
-10 16 -11 2 -6 -10 3 -18 1 -18 -4 0 -16 18 -20 29 -6 9 11 8 18 -4 30 -20
19 -18 19 -33 4z"/>
<path d="M945 780 c-3 -5 -1 -10 4 -10 6 0 11 5 11 10 0 6 -2 10 -4 10 -3 0
-8 -4 -11 -10z"/>
<path d="M1010 661 c0 -6 4 -13 10 -16 6 -3 7 1 4 9 -7 18 -14 21 -14 7z"/>
<path d="M1039 603 c-13 -16 -12 -17 4 -4 16 13 21 21 13 21 -2 0 -10 -8 -17
-17z"/>
<path d="M2815 600 c-8 -14 3 -30 21 -30 16 0 16 2 8 24 -7 18 -20 21 -29 6z
m20 -10 c3 -5 1 -10 -4 -10 -6 0 -11 5 -11 10 0 6 2 10 4 10 3 0 8 -4 11 -10z"/>
<path d="M134 3265 c-51 -54 -135 -296 -133 -384 0 -24 9 3 26 74 14 61 32
126 40 145 15 34 15 34 26 13 5 -13 14 -23 19 -23 5 0 7 -4 3 -9 -3 -5 0 -13
6 -17 8 -4 9 -3 5 4 -6 11 6 17 27 13 4 -1 16 3 25 8 15 8 18 5 20 -14 1 -14
-3 -36 -8 -50 -6 -15 -6 -24 -1 -21 5 3 9 -9 9 -28 0 -21 -6 -37 -14 -40 -8
-3 -14 -1 -14 4 0 5 -9 12 -20 15 -11 3 -20 12 -20 19 0 14 -37 19 -45 5 -3
-5 0 -6 8 -3 8 3 17 -2 20 -10 4 -9 14 -16 22 -16 10 0 13 -5 9 -12 -4 -7 -3
-8 5 -4 6 4 14 0 17 -8 5 -12 10 -13 25 -5 21 11 26 0 7 -19 -9 -9 -9 -12 1
-12 7 0 11 -6 8 -14 -3 -7 0 -19 6 -26 9 -10 9 -11 0 -6 -7 4 -13 2 -13 -3 0
-6 5 -11 10 -11 6 0 10 -7 10 -16 0 -9 -5 -12 -12 -8 -7 4 -8 3 -4 -5 4 -6 11
-9 16 -6 5 3 8 -8 8 -24 -1 -17 -5 -28 -9 -25 -4 2 -11 -1 -15 -7 -4 -8 -3 -9
4 -5 7 4 12 2 12 -4 0 -7 -7 -10 -15 -7 -8 4 -17 1 -21 -5 -4 -7 -9 -6 -15 3
-7 11 -9 11 -9 -1 0 -11 -2 -12 -8 -2 -5 7 -8 -4 -6 -27 1 -37 25 -87 36 -76
3 3 13 -5 24 -17 12 -13 13 -18 4 -13 -13 8 -13 7 -1 -9 14 -16 16 -16 29 11
8 15 20 31 26 35 6 4 7 8 2 8 -5 0 -4 6 2 13 16 18 9 47 -16 68 -22 17 -31 36
-12 24 6 -3 10 -1 10 4 0 19 18 12 25 -9 4 -11 11 -17 17 -14 6 4 21 -5 32
-19 l21 -27 14 23 c8 12 10 19 6 15 -5 -4 -15 -2 -23 4 -12 11 -7 19 34 55 27
23 46 44 43 47 -3 4 -27 -12 -52 -35 l-47 -41 -38 31 c-38 30 -39 31 -51 133
-7 56 -12 162 -12 236 1 136 -4 162 -37 162 -8 0 -29 -16 -48 -35z m126 -499
c0 -11 -19 -15 -25 -6 -3 5 1 10 9 10 9 0 16 -2 16 -4z"/>
<path d="M90 3061 c0 -6 4 -13 10 -16 6 -3 7 1 4 9 -7 18 -14 21 -14 7z"/>
<path d="M157 3063 c-2 -4 -1 -16 2 -26 6 -16 9 -17 19 -4 10 11 9 17 -2 26
-8 7 -16 8 -19 4z"/>
<path d="M92 3017 c-10 -11 -7 -14 13 -13 14 1 30 8 37 16 11 12 10 12 -3 2
-10 -8 -19 -8 -26 -1 -7 7 -14 5 -21 -4z"/>
<path d="M145 2980 c-3 -6 1 -7 9 -4 18 7 21 14 7 14 -6 0 -13 -4 -16 -10z"/>
<path d="M67 2932 c-10 -10 -17 -23 -17 -28 0 -5 4 -3 9 5 10 15 41 8 41 -9 0
-6 -4 -8 -10 -5 -5 3 -7 0 -4 -9 5 -12 9 -13 19 -3 15 14 13 41 -3 43 -25 3
-26 6 -7 14 15 6 16 9 4 9 -9 1 -23 -7 -32 -17z"/>
<path d="M140 2895 c7 -9 15 -13 18 -10 3 3 11 0 19 -7 11 -8 12 -7 7 6 -4 10
-13 15 -20 12 -8 -3 -14 -1 -14 4 0 6 -5 10 -11 10 -8 0 -7 -5 1 -15z"/>
<path d="M55 2881 c-3 -5 -2 -12 3 -15 5 -3 9 1 9 9 0 17 -3 19 -12 6z"/>
<path d="M1 2824 c0 -11 3 -14 6 -6 3 7 2 16 -1 19 -3 4 -6 -2 -5 -13z"/>
<path d="M120 2819 c0 -5 -4 -8 -9 -4 -5 3 -13 0 -17 -6 -4 -8 -3 -9 4 -5 16
9 15 -7 0 -22 -9 -9 -9 -12 0 -12 7 0 12 5 12 11 0 8 6 7 17 -2 15 -13 15 -12
5 7 -13 25 -7 35 16 27 15 -4 15 -3 2 6 -19 14 -30 14 -30 0z"/>
<path d="M170 2816 c0 -8 5 -18 10 -21 6 -4 7 -11 4 -17 -5 -7 -2 -8 5 -3 9 5
9 11 3 17 -6 6 -8 17 -5 24 3 8 0 14 -6 14 -6 0 -11 -6 -11 -14z"/>
<path d="M0 2796 c0 -2 8 -10 18 -17 15 -13 16 -12 3 4 -13 16 -21 21 -21 13z"/>
<path d="M184 2755 c-10 -8 -14 -15 -8 -15 6 0 17 7 24 15 16 19 9 19 -16 0z"/>
<path d="M29 2733 l-24 -28 28 24 c15 14 27 26 27 28 0 8 -8 1 -31 -24z"/>
<path d="M91 2714 c-1 -18 26 -37 34 -24 3 5 0 10 -9 10 -8 0 -17 6 -19 13 -4
7 -6 8 -6 1z"/>
<path d="M24 2643 c3 -21 16 -28 16 -9 0 12 5 16 16 12 8 -3 12 -2 9 3 -8 14
-43 9 -41 -6z"/>
<path d="M116 2627 c3 -10 9 -15 12 -12 3 3 0 11 -7 18 -10 9 -11 8 -5 -6z"/>
<path d="M383 2625 c0 -8 4 -12 9 -9 5 3 6 10 3 15 -9 13 -12 11 -12 -6z"/>
<path d="M71 2616 c-9 -11 -9 -16 0 -22 7 -4 9 -3 5 4 -3 6 2 15 11 21 10 6
13 11 7 11 -6 0 -17 -6 -23 -14z"/>
<path d="M9 2618 c-6 -21 -5 -38 1 -38 5 0 8 9 7 20 -1 17 -5 26 -8 18z"/>
<path d="M45 2580 c-3 -5 -1 -10 4 -10 6 0 11 5 11 10 0 6 -2 10 -4 10 -3 0
-8 -4 -11 -10z"/>
<path d="M145 2570 c10 -11 20 -20 23 -20 3 0 -3 9 -13 20 -10 11 -20 20 -23
20 -3 0 3 -9 13 -20z"/>
<path d="M86 2565 c-11 -8 -18 -17 -15 -19 2 -2 15 4 28 15 27 22 15 26 -13 4z"/>
<path d="M354 2559 c-3 -6 -2 -15 4 -21 6 -6 12 -6 16 1 4 6 1 11 -6 11 -9 0
-9 3 2 10 9 6 10 10 3 10 -6 0 -15 -5 -19 -11z"/>
<path d="M186 2548 c3 -4 9 -8 15 -8 5 0 9 4 9 8 0 5 -7 9 -15 9 -8 0 -12 -4
-9 -9z"/>
<path d="M37 2539 c7 -7 15 -10 18 -7 3 3 -2 9 -12 12 -14 6 -15 5 -6 -5z"/>
<path d="M21 2525 c16 -19 15 -50 0 -41 -4 3 -8 -1 -8 -9 0 -10 5 -11 15 -6
23 13 22 38 -1 58 -22 18 -22 18 -6 -2z"/>
<path d="M223 2500 c3 -11 1 -18 -4 -14 -5 3 -9 0 -9 -5 0 -6 5 -11 10 -11 15
0 12 -17 -7 -36 -17 -17 -17 -18 1 -11 14 5 17 4 12 -8 -3 -9 0 -15 9 -15 8 0
12 -8 10 -20 -4 -23 7 -26 24 -6 7 8 23 17 36 20 14 4 26 14 27 24 4 52 3 69
-7 66 -5 -2 -28 5 -50 16 -49 25 -59 25 -52 0z"/>
<path d="M130 2501 c0 -5 5 -13 10 -16 6 -3 10 -2 10 4 0 5 -4 13 -10 16 -5 3
-10 2 -10 -4z"/>
<path d="M145 2450 c-3 -6 1 -7 9 -4 18 7 21 14 7 14 -6 0 -13 -4 -16 -10z"/>
<path d="M3480 1704 c14 -10 34 -17 45 -15 16 2 17 1 7 -12 -11 -13 -9 -16 9
-22 21 -7 21 -9 6 -20 -22 -16 -21 -22 4 -28 12 -3 18 -10 14 -17 -9 -15 44
-69 68 -70 10 0 16 4 13 8 -3 5 1 9 9 9 17 0 20 -14 4 -19 -7 -2 -1 -22 15
-50 19 -34 26 -60 24 -92 -1 -27 -5 -43 -11 -39 -6 4 -7 1 -2 -7 4 -7 2 -16
-6 -21 -12 -7 -12 -9 0 -9 11 0 10 -4 -4 -13 -12 -10 -14 -16 -7 -21 16 -10
15 -39 0 -33 -7 2 -12 9 -11 15 2 6 -3 9 -11 6 -11 -4 -11 5 -4 51 7 40 7 59
-2 70 -6 8 -9 19 -5 24 4 7 0 8 -11 4 -15 -6 -15 -4 1 20 9 15 13 27 9 27 -5
0 -1 7 9 14 16 12 12 16 -42 44 -39 20 -58 25 -54 16 3 -9 -1 -14 -12 -14 -10
0 -15 5 -12 13 4 10 -3 12 -24 9 -17 -2 -29 0 -29 7 0 12 -19 7 -77 -21 -61
-30 -125 -132 -109 -174 6 -15 8 -15 26 1 11 10 20 22 20 28 0 5 12 18 26 29
14 12 23 27 20 35 -3 8 -1 11 4 8 6 -3 10 -1 10 5 0 6 5 8 10 5 9 -6 14 8 11
28 0 4 7 7 17 8 14 0 14 2 -3 9 -12 5 9 7 55 4 41 -3 76 -7 78 -8 2 -2 -13
-21 -32 -42 -19 -21 -32 -42 -29 -48 3 -5 1 -6 -6 -2 -16 10 -101 -59 -132
-108 -35 -55 -42 -76 -25 -76 8 0 19 14 25 30 6 19 17 30 29 30 11 0 30 15 43
35 26 38 41 46 33 18 -2 -10 1 -7 8 7 14 28 29 41 39 34 5 -2 6 5 4 17 -2 12
-2 19 2 15 3 -3 12 3 20 14 8 11 21 20 29 20 9 0 12 5 8 12 -4 7 -3 8 4 4 7
-4 12 -14 12 -22 0 -8 -4 -13 -9 -10 -5 3 -14 0 -20 -8 -9 -11 -7 -15 13 -20
20 -5 25 -14 31 -61 10 -86 -9 -191 -55 -287 -12 -27 -26 -48 -31 -48 -5 0 -9
-7 -9 -15 0 -8 -9 -15 -19 -15 -11 0 -23 -4 -26 -10 -3 -5 -2 -10 3 -10 12 0
8 -31 -7 -55 -10 -16 -11 -17 -7 -2 3 11 2 15 -4 12 -6 -3 -10 -18 -10 -33 0
-21 -2 -24 -10 -12 -8 13 -10 12 -10 -2 0 -10 -4 -18 -10 -18 -5 0 -10 4 -10
8 0 4 -8 8 -19 8 -11 0 -17 -6 -14 -13 3 -6 12 -9 21 -6 12 5 14 2 9 -12 -7
-16 -5 -16 10 -4 15 12 15 11 -1 -8 -10 -13 -22 -20 -27 -17 -5 2 -18 -5 -29
-16 l-20 -20 -9 22 c-5 15 -4 26 3 30 6 5 2 8 -10 8 -12 0 -27 7 -34 15 -7 8
-18 15 -24 15 -6 0 -4 -5 4 -10 10 -6 11 -10 3 -10 -7 0 -13 -5 -13 -11 0 -9
4 -9 13 0 11 8 17 7 29 -7 16 -19 18 -43 3 -41 -5 1 -9 5 -8 9 1 4 -4 11 -13
14 -8 3 -12 2 -9 -4 3 -6 -1 -10 -9 -10 -8 0 -16 8 -19 18 -3 13 -4 13 -3 -3
1 -12 10 -21 26 -25 l25 -6 -27 -6 c-15 -3 -25 -1 -22 3 3 5 1 9 -5 9 -5 0
-12 8 -15 18 -2 9 -4 4 -3 -13 2 -22 7 -30 22 -31 11 -1 23 -2 28 -4 4 -1 11
-3 16 -4 5 0 12 -4 16 -7 3 -4 15 -5 26 -2 16 5 17 8 7 22 -11 13 -8 13 15 -2
15 -10 33 -15 40 -10 8 4 7 1 -2 -10 -7 -9 -9 -17 -3 -17 12 0 24 29 16 41 -3
5 -1 9 4 9 14 0 21 -25 12 -40 -5 -8 -12 -40 -15 -73 -5 -42 -10 -56 -18 -48
-15 15 -30 14 -21 -1 4 -6 -9 1 -29 16 -37 28 -122 44 -114 22 2 -6 11 -10 21
-8 9 2 16 -3 16 -10 0 -10 2 -10 9 1 7 11 10 9 16 -8 4 -14 12 -20 21 -17 9 3
12 1 9 -4 -3 -6 0 -10 8 -10 8 0 21 -7 28 -16 11 -14 10 -16 -16 -13 -50 4
-123 -12 -140 -31 -9 -10 -25 -17 -36 -15 -10 2 -19 -2 -19 -8 0 -8 -3 -8 -9
2 -5 8 -11 9 -15 3 -3 -5 1 -15 9 -22 10 -9 12 -17 5 -30 -5 -9 -6 -20 -3 -24
3 -3 1 -6 -5 -6 -14 0 -15 10 -2 30 6 9 5 17 -1 21 -14 8 -19 78 -6 86 6 3 7
1 3 -5 -4 -7 -2 -12 4 -12 6 0 10 8 8 17 -2 10 2 17 9 16 8 -2 10 4 6 14 -6
14 -8 14 -20 -3 -14 -19 -19 -20 -40 -3 -7 7 -14 6 -18 -1 -4 -6 -1 -9 6 -8 6
2 12 -7 14 -20 1 -12 -2 -22 -7 -22 -4 0 -8 -5 -8 -11 0 -8 5 -8 15 1 13 11
15 9 13 -11 -2 -13 -6 -27 -11 -30 -4 -3 -1 -22 8 -42 18 -44 19 -55 3 -39 -7
7 -13 20 -13 29 0 9 -6 18 -12 20 -7 3 -13 0 -13 -6 0 -6 6 -11 13 -11 8 0 7
-3 -3 -10 -8 -5 -16 -18 -16 -30 -2 -24 11 -27 20 -3 5 12 10 13 18 5 6 -6 17
-8 24 -5 8 3 14 1 14 -5 0 -6 9 -8 20 -5 15 4 17 9 10 23 -15 29 -13 30 35 28
49 -3 61 -22 23 -38 -24 -9 -13 -13 32 -11 24 2 24 1 6 -14 -19 -14 -18 -15
11 -15 27 0 32 -4 37 -35 4 -20 5 -39 2 -43 -2 -4 114 -7 257 -8 144 -1 304
-3 355 -6 l92 -6 0 79 c0 79 -3 84 -37 80 -21 -3 -8 62 16 77 24 16 30 65 7
56 -7 -3 -30 2 -51 10 -21 9 -45 16 -54 15 -9 0 -4 -5 11 -10 31 -12 43 -35
22 -43 -8 -3 -13 -2 -10 3 3 5 -8 14 -25 21 -19 8 -28 18 -25 27 4 11 1 11
-14 3 -11 -6 -20 -13 -20 -16 0 -3 4 -3 9 0 11 7 47 -33 60 -66 9 -23 7 -29
-9 -38 -10 -5 -29 -10 -42 -10 -13 -1 -33 -6 -45 -13 -19 -10 -13 -12 43 -13
37 0 70 -6 77 -13 9 -10 0 -12 -43 -10 -30 2 -73 -3 -95 -9 -30 -9 -41 -9 -46
0 -10 15 10 40 24 31 6 -3 7 -1 3 5 -5 9 -13 9 -27 2 -21 -12 -26 2 -6 17 13
11 73 25 120 28 15 2 30 3 34 4 4 0 -7 15 -25 32 -30 29 -52 32 -52 5 0 -27
-21 -35 -41 -15 -33 33 -125 -2 -115 -44 3 -12 3 -16 0 -9 -4 9 -10 10 -18 2
-9 -7 -30 -4 -71 9 -32 11 -63 17 -70 15 -7 -3 -15 6 -19 20 -3 14 -11 26 -16
26 -15 0 -12 -23 6 -48 8 -12 11 -22 6 -22 -5 0 -23 -14 -39 -30 -16 -17 -30
-25 -31 -18 0 7 -3 24 -7 38 -6 24 -6 24 9 6 15 -19 16 -18 16 23 0 23 -5 51
-11 63 -10 18 -8 20 25 15 21 -3 37 0 40 7 3 8 7 7 14 -2 7 -11 11 -9 15 8 5
19 2 21 -16 17 -12 -3 -38 -8 -57 -12 -33 -6 -34 -6 -16 9 11 9 26 16 33 16 7
0 13 4 13 10 0 5 8 7 18 4 15 -5 15 -4 -2 10 -16 13 -17 20 -8 43 11 30 11 97
-1 109 -4 4 1 16 10 26 15 17 15 20 3 28 -11 7 -12 10 -2 10 7 0 11 4 8 9 -4
5 3 7 15 4 14 -4 17 -9 10 -16 -16 -16 -13 -37 3 -31 20 8 30 -14 15 -34 -12
-15 -12 -15 7 1 11 9 23 14 27 11 3 -4 20 -1 37 6 34 14 49 8 32 -13 -16 -19
26 -20 55 -2 19 13 20 18 10 40 -15 31 -31 33 -21 3 8 -27 2 -23 -16 11 -6 13
-7 21 -2 17 6 -3 13 -2 17 3 3 5 14 9 25 8 15 -1 18 -6 13 -25 -6 -26 31 -72
40 -49 3 7 6 4 6 -6 1 -10 5 -16 10 -13 5 3 8 -5 7 -19 0 -14 -7 -26 -13 -26
-7 -1 -17 -3 -23 -4 -5 -1 -15 -3 -21 -4 -6 0 -8 -9 -4 -20 5 -16 1 -18 -22
-16 -42 4 -65 16 -59 31 8 20 -23 5 -35 -18 -13 -25 -4 -36 19 -22 21 13 42 7
42 -11 0 -11 15 -14 59 -13 36 1 58 5 54 11 -3 6 -2 8 3 6 64 -32 62 -32 96
-18 18 8 37 13 41 11 5 -1 5 3 1 9 -4 7 -2 10 7 7 8 -3 13 -11 11 -18 -2 -10
0 -11 10 -2 10 7 18 8 28 0 12 -8 12 -9 -2 -4 -22 7 -24 -10 -3 -18 9 -3 15
-14 13 -23 -2 -11 3 -18 12 -18 16 0 26 52 16 90 -4 17 -13 22 -46 23 -23 1
-39 -2 -36 -6 2 -4 -4 -13 -14 -19 -17 -11 -24 -3 -29 34 -1 4 16 7 37 6 20 0
45 3 55 8 11 6 17 6 17 -1 0 -5 5 -10 11 -10 6 0 7 5 2 13 -11 17 -10 41 2 49
6 4 -5 6 -23 3 -22 -2 -35 1 -39 11 -7 20 -23 18 -24 -3 -1 -12 -4 -10 -10 7
-8 24 -8 24 -6 -5 1 -22 -2 -29 -13 -27 -8 2 -12 0 -7 -4 4 -4 1 -17 -7 -30
-8 -12 -12 -25 -9 -28 11 -11 12 -37 2 -30 -5 3 -7 8 -5 12 2 4 -2 16 -9 26
-13 17 -15 17 -40 -10 -24 -26 -27 -27 -42 -11 -16 16 -16 17 0 17 9 0 17 -6
17 -12 0 -9 3 -8 10 2 6 9 5 17 -3 22 -6 4 -8 11 -3 15 5 4 11 2 13 -4 4 -10
9 -10 26 -1 12 7 27 11 32 9 6 -1 4 3 -3 10 -10 11 -8 16 10 26 13 7 17 12 10
13 -7 0 -11 4 -7 9 3 5 0 13 -6 17 -7 4 -9 3 -5 -4 10 -16 -11 -24 -34 -12
-13 7 -20 7 -20 0 0 -5 5 -10 11 -10 5 0 8 -4 5 -9 -4 -5 0 -11 6 -14 10 -3
10 -8 -1 -18 -8 -8 -11 -9 -8 -4 3 6 -2 19 -10 30 -15 19 -15 19 -8 -5 l6 -25
-20 25 c-29 36 5 62 47 36 5 -3 9 1 9 8 0 8 -6 12 -14 9 -9 -3 -11 0 -7 10 3
8 0 18 -6 22 -8 5 -5 11 7 21 16 13 13 13 -18 0 -25 -9 -40 -11 -47 -4 -6 6
-12 6 -16 0 -3 -6 -2 -14 4 -17 8 -5 7 -11 -1 -21 -6 -8 -7 -14 -3 -14 5 0 15
9 22 20 15 24 38 26 46 4 4 -12 1 -14 -13 -9 -14 4 -21 0 -26 -14 -8 -27 -40
-20 -41 10 0 13 -3 32 -7 42 -14 36 -15 45 -4 56 6 6 7 14 3 18 -4 4 -11 1
-16 -7 -8 -13 -10 -13 -10 1 0 9 7 22 16 29 12 11 15 11 12 -1 -2 -8 2 -13 9
-12 7 2 10 -4 7 -12 -8 -20 15 -19 38 2 18 16 18 16 12 -2 -6 -14 -4 -16 6
-10 8 5 11 4 6 -3 -4 -6 -14 -8 -24 -5 -9 3 -14 3 -10 -2 4 -4 3 -16 -3 -26
-7 -15 -6 -19 5 -19 24 0 46 12 40 21 -3 5 3 6 12 2 11 -4 15 -3 11 4 -4 6 0
18 8 26 18 18 20 31 3 21 -7 -5 -8 -3 -4 5 6 10 12 9 24 -1 15 -13 23 -14 49
-9 3 0 -2 10 -11 20 -10 11 -16 26 -13 33 4 9 6 8 6 -3 1 -9 8 -22 16 -29 8
-7 13 -15 11 -19 -3 -4 5 -13 17 -21 19 -12 20 -11 10 2 -11 12 -8 19 12 38
16 15 25 19 25 10 0 -7 2 -11 5 -8 8 7 -5 38 -16 38 -5 0 -8 -5 -6 -11 1 -6
-5 -14 -13 -17 -8 -2 -12 -1 -8 3 4 4 0 14 -10 22 -16 14 -16 14 1 9 19 -6 24
9 5 18 -7 4 -3 4 10 2 12 -2 22 0 22 5 0 5 -6 9 -14 9 -8 0 -18 5 -22 11 -4 7
2 9 14 7 12 -2 20 2 19 7 -1 6 -8 9 -15 9 -8 -1 -10 2 -3 10 6 7 4 18 -5 30
-8 11 -14 14 -14 7 0 -7 -5 -9 -12 -5 -7 5 -8 3 -3 -6 6 -10 4 -12 -11 -6 -10
4 -15 4 -11 0 4 -4 2 -13 -4 -21 -9 -9 -8 -13 0 -13 6 0 11 6 11 13 0 6 6 1
14 -13 14 -26 3 -66 -15 -55 -5 4 -7 10 -4 15 3 5 1 11 -4 14 -5 3 -16 -12
-25 -34 -9 -22 -18 -40 -21 -40 -2 0 -2 7 1 15 5 11 -1 15 -23 15 -16 0 -34 5
-40 11 -7 7 -23 8 -45 3 -54 -12 -77 -9 -93 12 -8 10 -15 14 -15 7 0 -6 7 -18
15 -27 20 -19 19 -27 -2 -19 -13 5 -15 2 -10 -18 5 -22 5 -22 -7 -6 -13 17
-15 16 -30 -14 -16 -32 -16 -32 4 -14 11 10 20 16 21 14 0 -2 2 -14 5 -26 2
-12 -1 -25 -8 -29 -8 -5 -9 -2 -5 10 6 14 3 15 -14 5 -11 -6 -18 -13 -15 -16
9 -9 96 -10 90 -2 -3 5 2 6 10 3 9 -3 16 -14 16 -23 0 -9 -3 -12 -8 -6 -9 13
-35 18 -27 5 8 -13 -1 -13 -26 0 -13 8 -19 7 -19 0 0 -6 -5 -8 -12 -4 -7 4 -8
3 -4 -5 4 -6 12 -9 17 -6 5 4 9 1 9 -4 0 -6 -13 -11 -29 -11 -17 0 -31 -6 -35
-16 -3 -8 -2 -12 3 -9 5 3 12 1 16 -5 4 -6 -5 -10 -19 -10 -14 0 -26 5 -26 11
0 5 -4 7 -10 4 -5 -3 -10 0 -11 7 -1 7 -2 22 -3 33 0 11 -7 19 -13 18 -7 -2
-13 4 -13 13 0 8 5 12 10 9 6 -3 10 3 10 14 0 23 15 28 26 9 5 -7 3 -8 -6 -3
-9 5 -11 4 -6 -4 5 -7 17 -1 38 19 17 17 28 34 24 37 -3 4 -6 1 -6 -5 0 -7 -5
-12 -11 -12 -20 0 10 27 36 34 14 4 25 13 25 21 0 18 -17 28 -25 15 -11 -18
-23 -11 -20 13 3 24 35 174 41 195 2 7 9 10 15 7 8 -5 8 -10 0 -18 -6 -6 -11
-15 -11 -19 0 -5 18 10 40 33 27 29 40 51 40 71 0 18 5 28 15 28 17 0 20 17 4
22 -14 5 0 38 17 38 8 0 14 9 14 21 0 15 -5 19 -16 15 -9 -3 -12 -2 -9 5 4 5
15 7 25 4 10 -3 21 -1 25 5 5 8 14 6 31 -4 13 -9 30 -16 38 -16 9 0 12 -7 9
-20 -5 -18 -2 -19 25 -14 25 5 31 2 37 -16 5 -15 10 -19 17 -12 10 10 -8 59
-35 93 -17 22 -109 49 -161 48 -59 -3 -79 16 -66 62 33 116 -8 157 -175 175
l-50 6 25 -18z m-43 -370 c-3 -3 -12 -4 -19 -1 -8 3 -5 6 6 6 11 1 17 -2 13
-5z m133 -338 c0 -2 -7 -7 -16 -10 -8 -3 -12 -2 -9 4 6 10 25 14 25 6z m-14
-51 c-1 -29 -16 -35 -16 -7 0 16 8 32 16 32 1 0 1 -11 0 -25z m135 2 c-10 -9
-11 -8 -5 6 3 10 9 15 12 12 3 -3 0 -11 -7 -18z m240 -4 c13 -16 12 -17 -3 -4
-10 7 -18 15 -18 17 0 8 8 3 21 -13z m-262 -19 c4 3 8 -4 8 -15 1 -10 -7 -24
-18 -29 -16 -9 -19 -7 -19 12 0 17 3 19 9 9 5 -8 11 -9 15 -3 3 6 2 13 -4 17
-5 3 -10 12 -9 18 0 9 2 8 6 -1 2 -6 8 -10 12 -8z m-22 -141 c11 -22 10 -23
-4 -11 -9 7 -28 18 -42 24 l-26 12 30 -1 c23 0 34 -6 42 -24z m-267 -17 c0 -8
-5 -18 -12 -22 -7 -5 -9 -2 -5 9 3 9 1 18 -6 21 -7 2 -4 5 6 5 9 1 17 -5 17
-13z m-65 -13 c-2 -10 -4 -20 -4 -22 -1 -2 -7 2 -14 8 -8 6 -18 7 -22 3 -5 -4
-5 -1 -1 6 4 7 11 10 16 7 5 -3 11 -1 15 5 9 15 14 12 10 -7z m639 -6 c4 4 4
-1 0 -12 -7 -18 -6 -18 9 -6 11 8 17 9 17 3 0 -15 -29 -28 -67 -30 -39 -3 -41
4 -11 35 15 16 25 20 33 13 7 -5 15 -7 19 -3z m-580 -256 c3 -4 -4 -7 -15 -8
-10 -1 -28 -8 -38 -16 -19 -13 -19 -14 14 -26 49 -17 44 -31 -7 -19 -24 5 -50
7 -59 5 -11 -3 -16 1 -14 12 1 9 -2 22 -8 29 -7 9 -6 11 7 6 10 -4 15 -13 12
-20 -3 -8 1 -14 9 -14 11 0 12 6 5 24 -10 27 -5 37 15 30 7 -3 16 -1 19 4 6
10 53 4 60 -7z m-214 -6 c0 -8 -4 -15 -10 -15 -5 0 -7 7 -4 15 4 8 8 15 10 15
2 0 4 -7 4 -15z m22 -13 c4 -13 -1 -18 -16 -19 -12 -1 -15 1 -8 4 6 3 12 11
12 19 0 20 7 18 12 -4z m31 -6 c3 -8 -2 -20 -11 -27 -14 -11 -15 -11 -5 0 6 7
9 20 6 27 -3 8 -3 14 0 14 3 0 7 -6 10 -14z m312 -31 c11 -1 32 -7 48 -15 21
-10 30 -11 39 -2 8 8 15 8 24 1 6 -5 22 -12 35 -14 26 -5 50 -25 30 -25 -7 0
-10 -4 -6 -9 3 -5 0 -13 -6 -17 -8 -4 -9 -3 -5 4 5 8 -1 12 -16 11 -13 0 -17
-3 -10 -6 20 -8 -6 -33 -26 -26 -19 7 -48 44 -44 56 4 14 -29 7 -34 -8 -4 -8
-10 -15 -16 -15 -5 0 -6 5 -2 12 5 8 0 9 -17 4 -13 -4 -35 -7 -49 -7 -20 1
-22 -1 -10 -9 9 -6 10 -10 3 -10 -6 0 -15 5 -18 10 -4 6 -11 8 -16 5 -5 -3 -6
0 -4 8 3 7 19 21 35 31 17 10 27 22 24 28 -5 7 -2 8 7 2 8 -4 23 -9 34 -9z
m-455 -29 c0 -3 -4 -8 -10 -11 -5 -3 -10 -1 -10 4 0 6 5 11 10 11 6 0 10 -2
10 -4z m286 -16 c8 0 14 -4 14 -9 0 -5 -18 -9 -40 -8 -40 2 -52 11 -27 20 6 3
18 4 25 1 8 -2 20 -4 28 -4z m614 -16 c6 -6 3 -14 -10 -22 -14 -8 -21 -9 -26
0 -4 6 -3 8 3 5 6 -4 14 0 17 8 4 13 2 13 -14 5 -11 -6 -17 -16 -14 -25 4 -8
1 -15 -5 -16 -45 -4 -69 -1 -86 9 -11 6 -15 12 -8 12 6 0 15 -5 19 -12 5 -8 9
-6 14 7 4 10 22 24 41 30 38 14 55 13 69 -1z m-411 -38 c10 -12 8 -13 -8 -9
-12 3 -18 9 -15 14 7 12 10 11 23 -5z"/>
<path d="M3926 732 c-3 -6 -1 -14 5 -17 14 -9 20 -2 10 14 -6 8 -11 9 -15 3z"/>
<path d="M2545 1580 c3 -5 8 -10 11 -10 2 0 4 5 4 10 0 6 -5 10 -11 10 -5 0
-7 -4 -4 -10z"/>
<path d="M2760 1431 c0 -5 5 -13 10 -16 6 -3 10 -2 10 4 0 5 -4 13 -10 16 -5
3 -10 2 -10 -4z"/>
<path d="M2856 1422 c12 -9 24 -24 27 -32 4 -12 6 -12 6 2 1 19 -25 48 -42 48
-7 0 -2 -8 9 -18z"/>
<path d="M2611 1389 c13 -12 33 -29 44 -38 32 -25 65 -77 65 -100 0 -12 4 -21
9 -21 4 0 8 -10 7 -22 -1 -13 5 -34 14 -48 15 -25 15 -27 -1 -47 -7 -7 -6 -14
1 -18 8 -5 7 -11 -2 -23 -10 -12 -10 -14 0 -8 7 4 12 2 12 -4 0 -7 -6 -10 -12
-8 -7 3 -14 21 -16 42 -2 21 -10 40 -18 43 -7 3 -11 9 -8 14 3 5 -2 9 -11 9
-10 0 -13 5 -9 12 5 7 2 9 -9 5 -10 -4 -14 -2 -11 6 2 7 -2 21 -11 32 -13 17
-16 18 -25 5 -9 -12 -10 -11 -6 6 4 14 2 21 -7 21 -20 0 -9 -35 14 -48 11 -5
19 -16 19 -23 0 -8 9 -16 20 -19 11 -3 20 -14 20 -25 0 -11 6 -25 14 -31 8 -7
15 -20 15 -29 3 -47 6 -62 15 -62 6 0 0 -7 -12 -16 -12 -8 -22 -25 -22 -36 0
-12 -3 -18 -7 -14 -11 11 -10 40 2 49 6 5 -1 5 -14 2 -16 -5 -21 -4 -17 4 5 7
1 9 -8 5 -23 -9 -20 -21 7 -29 12 -3 17 -9 10 -11 -16 -7 -5 -34 13 -34 8 0
17 6 20 13 3 8 12 14 21 14 12 0 9 -6 -10 -23 -14 -12 -23 -24 -21 -27 3 -3
14 2 24 11 44 40 48 42 54 27 7 -20 26 -19 26 0 0 8 3 14 8 14 4 -1 10 0 15 1
4 1 12 3 17 4 6 0 10 6 9 11 -1 6 -6 9 -12 7 -6 -2 -5 3 2 12 10 12 8 14 -13
12 -14 -2 -32 -9 -40 -15 -12 -10 -14 -9 -12 6 2 10 11 17 20 17 9 -1 15 3 13
10 -3 6 -10 10 -16 8 -9 -2 -11 21 -9 82 2 69 0 87 -14 103 -10 11 -18 26 -18
35 0 8 -9 25 -20 38 -11 13 -20 30 -20 39 0 9 -10 23 -22 31 -11 8 -28 23 -37
33 -8 9 -26 17 -40 17 l-24 0 24 -21z m33 -5 c3 -8 2 -12 -4 -9 -6 3 -10 10
-10 16 0 14 7 11 14 -7z"/>
<path d="M2720 1403 c1 -5 7 -19 15 -33 12 -22 14 -23 20 -8 4 9 3 23 -1 30
-5 9 -1 8 12 -2 18 -14 18 -14 5 3 -13 17 -51 24 -51 10z"/>
<path d="M2806 1383 c9 -88 18 -105 41 -82 8 8 13 5 18 -12 4 -12 14 -38 22
-58 14 -32 16 -34 26 -16 15 27 15 47 -1 64 -11 12 -11 15 0 22 11 7 11 9 -1
9 -10 0 -12 9 -7 33 3 17 3 28 -2 22 -4 -5 -14 -10 -22 -10 -8 0 -16 -6 -16
-12 -3 -26 -5 -28 -15 -10 -5 9 -8 21 -5 26 3 4 -5 18 -18 30 l-23 22 3 -28z"/>
<path d="M3530 1379 c0 -5 5 -7 10 -4 6 3 10 8 10 11 0 2 -4 4 -10 4 -5 0 -10
-5 -10 -11z"/>
<path d="M3670 1370 c0 -5 5 -10 10 -10 6 0 10 5 10 10 0 6 -4 10 -10 10 -5 0
-10 -4 -10 -10z"/>
<path d="M2631 1281 c-10 -17 -9 -21 3 -21 20 0 31 19 18 32 -7 7 -14 3 -21
-11z"/>
<path d="M2678 1223 c7 -3 16 -2 19 1 4 3 -2 6 -13 5 -11 0 -14 -3 -6 -6z"/>
<path d="M2726 1151 c-4 -5 -2 -12 3 -15 5 -4 12 -2 15 3 4 5 2 12 -3 15 -5 4
-12 2 -15 -3z"/>
<path d="M3204 1027 c-3 -9 -11 -14 -16 -11 -6 4 -8 -2 -6 -11 1 -10 9 -20 17
-23 8 -3 11 0 7 6 -3 6 -2 13 3 17 6 3 8 -3 6 -15 -5 -24 9 -35 23 -17 6 8 4
21 -9 41 -15 25 -19 27 -25 13z"/>
<path d="M3470 1030 c8 -5 20 -10 25 -10 6 0 3 5 -5 10 -8 5 -19 10 -25 10 -5
0 -3 -5 5 -10z"/>
<path d="M3680 1014 c0 -1 8 -8 17 -15 14 -12 16 -12 8 0 -6 11 -4 13 8 8 10
-3 17 -2 17 3 0 5 -11 9 -25 8 -14 -1 -25 -3 -25 -4z"/>
<path d="M3836 1007 c3 -10 9 -15 12 -12 3 3 0 11 -7 18 -10 9 -11 8 -5 -6z"/>
<path d="M3453 985 c0 -8 4 -12 9 -9 5 3 6 10 3 15 -9 13 -12 11 -12 -6z"/>
<path d="M3385 971 c-3 -5 -1 -12 5 -16 5 -3 10 1 10 9 0 18 -6 21 -15 7z"/>
<path d="M2606 951 c-3 -5 1 -11 9 -14 9 -4 12 -1 8 9 -6 16 -10 17 -17 5z"/>
<path d="M3425 950 c4 -6 11 -8 16 -5 14 9 11 15 -7 15 -8 0 -12 -5 -9 -10z"/>
<path d="M2641 939 c-1 -23 25 -44 35 -28 4 8 3 9 -5 5 -7 -4 -15 2 -20 16 -7
15 -10 17 -10 7z"/>
<path d="M3354 937 c-4 -7 -4 -9 0 -5 5 4 19 3 32 -2 16 -6 25 -5 30 3 4 7 4
9 0 5 -5 -4 -19 -3 -32 2 -16 6 -25 5 -30 -3z"/>
<path d="M2737 907 c-3 -8 3 -14 16 -15 12 0 17 2 12 6 -6 4 -13 11 -16 15 -4
4 -9 2 -12 -6z"/>
<path d="M3304 904 c-10 -8 -13 -13 -6 -9 6 3 12 1 12 -5 0 -11 32 -9 63 5 24
10 21 20 -8 21 -16 1 -25 -3 -25 -13 0 -8 -5 -11 -10 -8 -6 4 -8 11 -5 16 9
13 1 11 -21 -7z"/>
<path d="M3843 899 c-12 -12 -5 -49 9 -49 5 0 6 -5 3 -10 -4 -6 -10 -8 -14 -6
-4 3 -8 -1 -8 -9 0 -8 6 -16 14 -19 7 -3 12 -2 12 2 -3 19 2 32 12 32 6 0 9
-6 6 -14 -6 -15 17 -16 30 -1 4 4 3 5 -3 2 -8 -5 -11 2 -10 18 0 14 4 25 7 25
6 0 18 -28 23 -52 0 -3 5 -10 10 -15 5 -5 6 -3 2 5 -9 14 6 16 20 2 7 -7 17
-5 30 5 10 8 14 15 7 15 -6 0 -15 -5 -18 -10 -5 -8 -11 -7 -21 1 -11 9 -11 15
-3 25 6 7 9 19 6 26 -4 9 -6 7 -6 -3 -1 -22 -31 -34 -31 -13 0 9 5 12 12 8 6
-4 8 -3 5 3 -9 14 -66 22 -73 11 -3 -5 -10 -5 -17 -1 -7 4 -4 9 8 13 11 4 14
9 8 13 -5 3 -14 2 -20 -4z m47 -50 c0 -6 -4 -7 -10 -4 -5 3 -10 11 -10 16 0 6
5 7 10 4 6 -3 10 -11 10 -16z"/>
<path d="M3880 900 c0 -5 5 -10 11 -10 5 0 7 5 4 10 -3 6 -8 10 -11 10 -2 0
-4 -4 -4 -10z"/>
<path d="M2902 884 c-10 -11 -18 -12 -32 -4 -16 9 -18 8 -13 -6 5 -13 3 -15
-7 -9 -8 5 -11 4 -6 -3 7 -12 46 -12 46 1 0 4 4 6 9 3 5 -3 12 1 15 10 9 22 4
25 -12 8z"/>
<path d="M3717 894 c-8 -8 4 -44 15 -44 5 0 6 5 3 10 -3 6 -1 10 4 10 6 0 11
4 11 9 0 10 -26 22 -33 15z"/>
<path d="M3226 863 c-6 -14 -5 -15 5 -6 7 7 10 15 7 18 -3 3 -9 -2 -12 -12z"/>
<path d="M3266 868 c3 -5 10 -6 15 -3 13 9 11 12 -6 12 -8 0 -12 -4 -9 -9z"/>
<path d="M3341 860 c0 -8 4 -22 9 -30 12 -18 12 -2 0 25 -6 13 -9 15 -9 5z"/>
<path d="M3550 829 c0 -5 5 -7 10 -4 6 3 10 8 10 11 0 2 -4 4 -10 4 -5 0 -10
-5 -10 -11z"/>
<path d="M3180 811 c0 -6 4 -13 10 -16 6 -3 7 1 4 9 -7 18 -14 21 -14 7z"/>
<path d="M3775 770 c-3 -5 -1 -10 4 -10 6 0 11 5 11 10 0 6 -2 10 -4 10 -3 0
-8 -4 -11 -10z"/>
<path d="M3540 750 c0 -5 5 -10 11 -10 5 0 7 5 4 10 -3 6 -8 10 -11 10 -2 0
-4 -4 -4 -10z"/>
<path d="M3680 720 l-25 -20 35 14 c19 7 41 11 49 8 8 -3 11 0 7 7 -11 17 -38
13 -66 -9z"/>
<path d="M3300 694 c0 -8 5 -12 10 -9 6 4 8 11 5 16 -9 14 -15 11 -15 -7z"/>
<path d="M3516 674 c-8 -21 -8 -24 3 -24 12 0 22 28 12 35 -5 3 -12 -2 -15
-11z"/>
<path d="M3482 661 c-11 -7 -11 -9 0 -14 9 -3 15 1 15 9 0 8 -1 14 -1 14 -1 0
-7 -4 -14 -9z"/>
<path d="M3347 643 c-10 -10 -8 -23 4 -23 5 0 8 4 5 9 -4 5 0 12 6 14 7 3 8 6
2 6 -6 1 -14 -2 -17 -6z"/>
<path d="M3519 614 c-14 -17 6 -27 28 -16 25 12 49 9 46 -6 -2 -7 7 -12 20
-12 17 0 19 -2 8 -9 -8 -5 -21 -7 -29 -4 -8 3 -2 -6 13 -21 14 -14 23 -30 20
-36 -6 -10 -35 -2 -35 11 0 4 -11 19 -23 33 -18 19 -26 23 -35 14 -9 -9 -6
-15 15 -23 29 -12 41 -45 16 -45 -9 0 -13 6 -10 14 4 10 1 13 -9 9 -7 -3 -14
0 -14 6 0 6 -7 11 -15 11 -8 0 -15 -6 -15 -14 0 -8 -3 -16 -7 -19 -5 -2 -2 -2
5 0 22 5 34 -7 22 -22 -8 -10 -2 -13 30 -13 22 0 49 -4 60 -7 13 -4 20 -2 20
7 1 34 30 52 80 51 47 0 49 1 29 15 -11 8 -42 14 -67 14 -26 0 -41 2 -34 5 6
3 10 8 8 12 -3 4 18 7 45 6 58 0 63 9 13 25 -29 10 -38 10 -44 0 -6 -9 -10 -8
-18 5 -12 22 -107 28 -123 9z"/>
<path d="M3140 602 c0 -7 6 -14 13 -16 23 -8 72 -15 59 -10 -6 3 -10 9 -7 13
2 5 -8 7 -23 5 -14 -1 -30 3 -34 9 -6 9 -8 9 -8 -1z"/>
<path d="M3780 595 c7 -9 15 -13 17 -11 7 7 -7 26 -19 26 -6 0 -6 -6 2 -15z"/>
<path d="M2968 548 c-11 -6 -11 -8 0 -8 7 0 11 -4 7 -9 -3 -5 -2 -12 3 -14 4
-3 12 5 18 17 11 24 -2 31 -28 14z"/>
<path d="M3035 550 c-16 -7 -17 -9 -3 -9 9 -1 20 4 23 9 7 11 7 11 -20 0z"/>
<path d="M2935 500 c-3 -6 1 -7 9 -4 18 7 21 14 7 14 -6 0 -13 -4 -16 -10z"/>
<path d="M3975 450 c-3 -6 1 -7 9 -4 18 7 21 14 7 14 -6 0 -13 -4 -16 -10z"/>
<path d="M3162 406 c7 -8 15 -12 17 -11 5 6 -10 25 -20 25 -5 0 -4 -6 3 -14z"/>
</g>
</svg>
